<svg width="41" height="41" viewBox="0 0 41 41" fill="none" xmlns="http://www.w3.org/2000/svg">
<circle opacity="0.1" cx="20.5" cy="20.5" r="20.5" fill="#F5F0F1"/>
<path d="M27 18.7179C27 15.5692 25.36 12.9333 22.5 12.2359V11.5385C22.5 10.6872 21.83 10 21 10C20.17 10 19.5 10.6872 19.5 11.5385V12.2359C16.63 12.9333 15 15.559 15 18.7179V23.8462L13 25.8974V26.9231H29V25.8974L27 23.8462V18.7179ZM21 30C21.14 30 21.27 29.9897 21.4 29.959C22.05 29.8154 22.58 29.3641 22.84 28.7487C22.94 28.5026 22.99 28.2359 22.99 27.9487H18.99C19 29.0769 19.89 30 21 30Z" fill="#F5F0F1"/>
</svg>
