<svg width="19" height="19" viewBox="0 0 19 19" fill="none" xmlns="http://www.w3.org/2000/svg">
<path d="M9.00393 9.40926C7.74323 9.40926 6.70959 8.37562 6.70959 7.11492V6.11276C6.70959 4.85206 7.74323 3.81842 9.00393 3.81842C10.2646 3.81842 11.2983 4.85206 11.2983 6.11276V7.11492C11.2983 8.3758 10.2647 9.40926 9.00393 9.40926Z" stroke="#F5F0F1"/>
<path d="M13.8257 14.6384V14.6385V17.5097H4.18579V14.6385C4.18579 12.7461 5.55765 11.1545 7.35698 10.8131C7.85834 11.046 8.41665 11.1789 9.00592 11.1789C9.5952 11.1789 10.1535 11.046 10.6549 10.8131C12.4542 11.1545 13.826 12.746 13.8257 14.6384Z" stroke="#F5F0F1"/>
<path d="M12.488 9.44473C12.8076 8.96808 13.0319 8.4224 13.134 7.83494C13.5602 7.78607 13.9655 7.66803 14.3392 7.49445C16.1385 7.83571 17.5104 9.42719 17.5106 11.3198C17.5106 11.3199 17.5106 11.3199 17.5106 11.3199V14.1911H15.7085C15.5472 12.1356 14.2854 10.338 12.488 9.44473Z" stroke="#F5F0F1"/>
<path d="M13.2005 6.03281C13.1673 4.27123 12.0426 2.77827 10.4796 2.19011C10.7468 1.21911 11.6405 0.5 12.6914 0.5C13.9521 0.5 14.9857 1.53363 14.9855 2.79427V2.79434V3.79649C14.9855 4.88219 14.2188 5.79935 13.2005 6.03281Z" stroke="#F5F0F1"/>
<path d="M4.87628 7.83493C4.9784 8.42234 5.20269 8.96806 5.5223 9.4447C3.72492 10.3379 2.46321 12.1357 2.30202 14.1913H0.5V11.3198C0.5 9.42719 1.8719 7.83569 3.6712 7.49445C4.04491 7.668 4.45012 7.78605 4.87628 7.83493Z" stroke="#F5F0F1"/>
<path d="M4.81072 6.03262C3.79239 5.7992 3.02563 4.88216 3.02563 3.79649V2.79434C3.02563 1.53364 4.05927 0.5 5.31997 0.5C6.37088 0.5 7.26452 1.2191 7.53162 2.18988C5.96843 2.77803 4.8439 4.27104 4.81072 6.03262Z" stroke="#F5F0F1"/>
</svg>
