<svg width="12" height="12" viewBox="0 0 12 12" fill="none" xmlns="http://www.w3.org/2000/svg">
<path d="M1.63636 0C0.734182 0 0 0.734182 0 1.63636V10.3636C0 11.2658 0.734182 12 1.63636 12H10.3636C11.2658 12 12 11.2658 12 10.3636V1.63636C12 0.734182 11.2658 0 10.3636 0H1.63636ZM1.63636 1.09091H10.3636C10.6642 1.09091 10.9091 1.33527 10.9091 1.63636V10.3636C10.9091 10.6647 10.6642 10.9091 10.3636 10.9091H9.27273V9.81818H6.54545V10.9091H1.63636C1.33582 10.9091 1.09091 10.6647 1.09091 10.3636V1.63636C1.09091 1.33527 1.33582 1.09091 1.63636 1.09091ZM6 2.72727C5.71067 2.72727 5.4332 2.84221 5.22861 3.04679C5.02403 3.25138 4.90909 3.52885 4.90909 3.81818C4.90909 4.10751 5.02403 4.38499 5.22861 4.58957C5.4332 4.79416 5.71067 4.90909 6 4.90909C6.28933 4.90909 6.5668 4.79416 6.77139 4.58957C6.97597 4.38499 7.09091 4.10751 7.09091 3.81818C7.09091 3.52885 6.97597 3.25138 6.77139 3.04679C6.5668 2.84221 6.28933 2.72727 6 2.72727ZM3.54545 3.81818C3.32846 3.81818 3.12035 3.90438 2.96691 4.05782C2.81347 4.21126 2.72727 4.41937 2.72727 4.63636C2.72727 4.85336 2.81347 5.06147 2.96691 5.21491C3.12035 5.36834 3.32846 5.45455 3.54545 5.45455C3.76245 5.45455 3.97056 5.36834 4.124 5.21491C4.27744 5.06147 4.36364 4.85336 4.36364 4.63636C4.36364 4.41937 4.27744 4.21126 4.124 4.05782C3.97056 3.90438 3.76245 3.81818 3.54545 3.81818ZM8.45455 3.81818C8.23755 3.81818 8.02944 3.90438 7.876 4.05782C7.72257 4.21126 7.63636 4.41937 7.63636 4.63636C7.63636 4.85336 7.72257 5.06147 7.876 5.21491C8.02944 5.36834 8.23755 5.45455 8.45455 5.45455C8.67154 5.45455 8.87965 5.36834 9.03309 5.21491C9.18653 5.06147 9.27273 4.85336 9.27273 4.63636C9.27273 4.41937 9.18653 4.21126 9.03309 4.05782C8.87965 3.90438 8.67154 3.81818 8.45455 3.81818ZM6 5.45455C4.54855 5.45455 4.09091 6.81818 4.09091 6.81818C4.09091 6.35673 4.36364 6 4.36364 6C4.2 5.89855 3.78131 5.82955 3.58168 5.82955C2.92004 5.83009 2.18182 6.4776 2.18182 6.91832V8.18182H9.81818V6.91832C9.81818 6.4776 8.99105 5.82955 8.41832 5.82955C8.21869 5.82955 7.8 5.89855 7.63636 6C7.63636 6 7.90909 6.35673 7.90909 6.81818C7.90909 6.81818 7.45145 5.45455 6 5.45455Z" fill="#F5F0F1"/>
</svg>
