<svg width="15" height="12" viewBox="0 0 15 12" fill="none" xmlns="http://www.w3.org/2000/svg">
<path d="M7.5 0.578613C3.91015 0.578613 1 3.48876 1 7.07861C1 8.74793 1.62927 10.2703 2.66354 11.4214C7.5 7.85711 12.3365 11.4214 12.3365 11.4214C13.3707 10.2703 14 8.74793 14 7.07861C14 3.48876 11.0899 0.578613 7.5 0.578613Z" fill="#F5F0F1"/>
<path d="M12.3365 11.4214C13.3707 10.2703 14 8.74793 14 7.07861C14 3.48876 11.0899 0.578613 7.5 0.578613C3.91015 0.578613 1 3.48876 1 7.07861C1 8.74793 1.62927 10.2703 2.66354 11.4214" stroke="#F5F0F1" stroke-width="0.8" stroke-miterlimit="10" stroke-linecap="round"/>
<path d="M8.30163 7.87781C8.08842 8.08373 7.80287 8.19767 7.50648 8.19509C7.21008 8.19252 6.92655 8.07363 6.71696 7.86404C6.50737 7.65445 6.38848 7.37092 6.38591 7.07452C6.38333 6.77813 6.49727 6.49258 6.70319 6.27938C7.14463 5.83794 11.2995 3.28372 11.2995 3.28372C11.2995 3.28372 8.74589 7.43637 8.30163 7.87781Z" stroke="#F52B45" stroke-width="0.8" stroke-linecap="round" stroke-linejoin="round"/>
<path d="M2.69568 7.07858H3.54351" stroke="#F52B45" stroke-miterlimit="10" stroke-linecap="round"/>
<path d="M4.104 3.68164L4.70313 4.28077" stroke="#F52B45" stroke-width="0.8" stroke-miterlimit="10" stroke-linecap="round"/>
<path d="M7.50098 2.27429V3.12212" stroke="#F52B45" stroke-width="0.8" stroke-miterlimit="10" stroke-linecap="round"/>
<path d="M12.3035 7.07858H11.4557" stroke="#F52B45" stroke-width="0.8" stroke-miterlimit="10" stroke-linecap="round"/>
<path d="M12.3786 11.3742C10.946 10.3856 9.23927 9.87161 7.49903 9.90465C5.75878 9.87161 4.05206 10.3856 2.61951 11.3742" stroke="#F5F0F1" stroke-miterlimit="10" stroke-linecap="round"/>
</svg>
