<svg width="156" height="157" viewBox="0 0 156 157" fill="none" xmlns="http://www.w3.org/2000/svg">
<rect opacity="0.05" y="15.6039" width="156" height="140.4" rx="9.75" fill="white"/>
<path d="M142.234 127.724C143.742 126.946 145.515 126.846 147.188 127.121C148.086 127.269 149.023 127.538 149.635 128.216C150.248 128.894 150.362 130.078 149.663 130.657C149.21 130.965 148.662 131.104 148.117 131.049C146.809 131.049 145.363 130.805 144.31 131.593C143.711 132.04 143.315 132.788 142.588 133.008C142.232 133.091 141.858 133.055 141.523 132.907C141.188 132.758 140.911 132.505 140.733 132.185C140.394 131.528 140.319 130.765 140.523 130.054C140.609 129.56 140.808 129.093 141.105 128.688C141.402 128.284 141.788 127.954 142.234 127.724Z" fill="#EBEBEB"/>
<path d="M138.79 121.059C139.713 122.374 141.503 121.94 142.333 121.135C143.162 120.329 143.514 119.169 143.834 118.057C144.564 115.52 145.3 112.859 144.756 110.277C144.626 109.494 144.283 108.761 143.765 108.16C143.501 107.864 143.165 107.643 142.789 107.518C142.414 107.393 142.012 107.369 141.624 107.447C140.722 107.688 140.161 108.569 139.754 109.413C138.558 111.896 137.931 114.615 137.919 117.372C137.919 118.656 138.067 119.998 138.79 121.059Z" fill="#EBEBEB"/>
<path d="M136.261 122.945C137.263 121.761 137.452 120.026 137.004 118.539C136.557 117.052 135.555 115.785 134.395 114.752C133.029 113.541 131.441 112.606 129.72 111.998C129.053 111.733 128.337 111.615 127.62 111.654C127.261 111.674 126.912 111.781 126.604 111.967C126.296 112.153 126.039 112.412 125.854 112.721C125.362 113.657 125.833 114.786 126.346 115.723C127.245 117.359 128.27 118.922 129.414 120.398C130.336 121.585 131.39 122.756 132.791 123.293C134.192 123.83 135.651 123.744 136.381 122.78" fill="#EBEBEB"/>
<path d="M138.729 140.912C138.777 140.716 138.805 140.515 138.812 140.313C138.853 139.879 138.908 139.332 138.97 138.681C139.051 137.878 139.173 137.079 139.338 136.289C139.553 135.325 139.844 134.38 140.209 133.462C140.567 132.546 141.052 131.685 141.652 130.904C142.14 130.27 142.763 129.753 143.476 129.39C143.959 129.149 144.478 128.988 145.012 128.911C145.213 128.904 145.412 128.875 145.607 128.825C145.406 128.803 145.203 128.803 145.001 128.825C144.447 128.868 143.905 129.009 143.4 129.242C142.649 129.596 141.99 130.12 141.476 130.774C140.85 131.563 140.345 132.441 139.979 133.38C139.609 134.31 139.32 135.271 139.114 136.251C138.96 137.053 138.854 137.863 138.798 138.678C138.746 139.366 138.725 139.931 138.715 140.32C138.699 140.517 138.704 140.716 138.729 140.912Z" fill="#E0E0E0"/>
<path d="M138.844 139.655C138.854 139.564 138.854 139.472 138.844 139.38V138.585C138.844 137.896 138.844 136.901 138.878 135.669C138.94 133.208 139.15 130.56 139.566 126.825C139.955 123.314 140.475 119.227 141.023 116.57C141.14 115.964 141.26 115.42 141.367 114.945C141.474 114.47 141.567 114.057 141.653 113.723L141.839 112.952C141.866 112.862 141.882 112.77 141.887 112.676C141.846 112.76 141.814 112.848 141.79 112.938C141.728 113.137 141.653 113.389 141.56 113.699C141.467 114.008 141.353 114.435 141.233 114.914C141.112 115.392 140.978 115.929 140.851 116.532C140.17 119.674 139.659 122.85 139.319 126.047C138.909 129.793 138.723 133.197 138.706 135.666C138.706 136.901 138.706 137.9 138.751 138.588C138.751 138.912 138.785 139.173 138.799 139.38C138.801 139.473 138.816 139.566 138.844 139.655Z" fill="#E0E0E0"/>
<path d="M138.857 133.084C138.878 132.807 138.878 132.53 138.857 132.254C138.826 131.724 138.75 130.953 138.602 130.009C138.421 128.906 138.177 127.815 137.872 126.739C137.513 125.415 137.052 124.12 136.495 122.866C135.548 120.553 134.186 118.432 132.478 116.608C132.182 116.294 131.866 116.001 131.531 115.73C131.387 115.606 131.259 115.485 131.128 115.385L130.763 115.131C130.545 114.965 130.315 114.816 130.075 114.683C130.034 114.738 131.063 115.344 132.361 116.725C134.011 118.565 135.336 120.673 136.278 122.959C136.823 124.206 137.284 125.488 137.655 126.798C137.969 127.864 138.229 128.945 138.433 130.037C138.606 130.97 138.702 131.731 138.778 132.261C138.783 132.537 138.809 132.812 138.857 133.084Z" fill="#E0E0E0"/>
<path d="M132.505 144.678L133.163 153.701H144.754L145.415 144.678H132.505Z" fill="#E0E0E0"/>
<path d="M146.797 141.122H131.388V144.678H146.797V141.122Z" fill="#E0E0E0"/>
<path d="M131.388 153.353V154.341H132.111H146.542V153.353H131.388Z" fill="#EBEBEB"/>
<path d="M132.82 156.076L132.111 154.341H145.992L145.162 156.076H132.82Z" fill="#E0E0E0"/>
<path d="M145.199 147.625C145.199 147.625 145.182 147.656 145.144 147.711L144.972 147.938C144.807 148.148 144.583 148.441 144.283 148.802L144.252 148.84L144.225 148.802L142.579 146.506H142.676L141.041 148.819L140.989 148.892L140.934 148.823L138.996 146.52H139.106C139.075 146.565 139.037 146.609 138.999 146.654L137.278 148.826L137.223 148.899L137.168 148.823C136.579 147.993 136.032 147.215 135.536 146.513H135.629L133.618 148.806L133.581 148.847L133.553 148.799L132.923 147.742L132.761 147.46C132.742 147.428 132.726 147.395 132.713 147.36C132.713 147.36 132.737 147.387 132.782 147.449L132.957 147.721C133.119 147.973 133.343 148.32 133.622 148.754H133.556L135.539 146.434L135.588 146.375L135.632 146.437L137.281 148.74H137.171L138.892 146.565L138.999 146.43L139.054 146.362L139.109 146.43L141.041 148.74H140.934L142.583 146.441L142.631 146.372L142.679 146.441L144.301 148.758H144.242L144.931 147.914L145.12 147.697C145.143 147.67 145.17 147.646 145.199 147.625Z" fill="#F5F5F5"/>
<path d="M145.574 144.62C145.574 144.657 142.672 144.692 139.088 144.692C135.505 144.692 132.603 144.657 132.603 144.62C132.603 144.582 135.508 144.547 139.088 144.547C142.669 144.547 145.574 144.578 145.574 144.62Z" fill="#F5F5F5"/>
<path d="M146.159 154.438C146.159 154.479 143.006 154.51 139.112 154.51C135.219 154.51 132.062 154.479 132.062 154.438C132.062 154.396 135.219 154.365 139.112 154.365C143.006 154.365 146.159 154.383 146.159 154.438Z" fill="#F5F5F5"/>
<path d="M77.1719 40.4342L77.375 40.7784C77.6042 41.1568 77.936 41.4624 78.332 41.6597L78.6763 41.8318L78.332 42.0384C77.9521 42.2658 77.6461 42.5981 77.4507 42.9954L77.2752 43.3397L77.072 42.9954C76.8438 42.6163 76.5116 42.3105 76.115 42.1141L75.7708 41.9386L76.115 41.7355C76.4941 41.5072 76.8 41.1751 76.9963 40.7784L77.1719 40.4342Z" fill="#E0E0E0"/>
<path d="M113.451 30.9362L113.654 31.2804C113.88 31.6641 114.212 31.9739 114.611 32.1721L114.955 32.3476L114.611 32.5507C114.232 32.779 113.926 33.1111 113.73 33.5078L113.554 33.852L113.351 33.5078C113.122 33.1294 112.79 32.8238 112.394 32.6265L112.05 32.4509L112.394 32.2478C112.773 32.0195 113.079 31.6874 113.275 31.2908L113.451 30.9362Z" fill="#E0E0E0"/>
<path d="M94.966 19.4346L95.0693 19.6033C95.1834 19.7929 95.3495 19.9458 95.5478 20.0439L95.7269 20.1334L95.5582 20.2333C95.3666 20.3476 95.2124 20.515 95.1141 20.7152L95.028 20.8908L94.9247 20.7221C94.8116 20.5317 94.6453 20.3786 94.4462 20.2815L94.2672 20.192L94.4393 20.0887C94.6288 19.9745 94.7817 19.8084 94.88 19.6102L94.966 19.4346Z" fill="#E0E0E0"/>
<path d="M109.01 31.0635L109.11 31.2322C109.226 31.422 109.393 31.5748 109.592 31.6729L109.768 31.7624L109.599 31.8622C109.409 31.9777 109.256 32.1449 109.158 32.3442L109.069 32.5197L108.969 32.3511C108.853 32.1613 108.686 32.0084 108.487 31.9104L108.311 31.8209L108.48 31.7211C108.67 31.6056 108.823 31.4384 108.921 31.2391L109.01 31.0635Z" fill="#E0E0E0"/>
<path d="M95.6935 43.4774L95.7967 43.6461C95.911 43.8356 96.077 43.9885 96.2753 44.0868L96.4543 44.1763L96.2821 44.2761C96.0924 44.3915 95.9395 44.5587 95.8415 44.758L95.752 44.9336L95.6522 44.7649C95.5373 44.5751 95.3715 44.4213 95.1736 44.3208L94.9946 44.2348L95.1633 44.1315C95.3538 44.0175 95.5079 43.8515 95.6074 43.653L95.6935 43.4774Z" fill="#E0E0E0"/>
<path d="M145.664 65.6667C146.847 64.3706 145.637 61.7936 144.189 60.6339C143.437 60.1601 142.749 59.5936 142.139 58.9477C141.024 57.3752 141.74 55.0669 140.711 53.4499C139.938 52.2422 138.405 51.7871 136.985 51.5869C135.566 51.3867 134.065 51.3392 132.842 50.6085C131.774 49.9682 130.921 48.8179 129.683 48.7031C128.755 48.617 127.877 49.1441 126.947 49.1771C126.036 49.1258 125.158 48.8156 124.416 48.2828C123.679 47.7455 122.847 47.3517 121.965 47.122C121.523 47.0195 121.059 47.0628 120.644 47.2453C120.229 47.4278 119.884 47.7397 119.66 48.1346L145.664 65.6667Z" fill="#F5F0F1"/>
<path d="M57.9481 9.90738C57.6728 7.52587 53.9385 6.46983 51.4564 6.90661C50.2629 7.11271 49.1018 7.6018 47.9029 7.49767C45.2998 7.28137 43.5525 4.4461 40.9736 4.06097C39.0446 3.77924 37.2059 4.95115 35.734 6.23174C34.2621 7.51233 32.8713 9.00236 31.019 9.62224C29.4079 10.1528 27.4719 10.0016 26.2427 11.1722C25.3231 12.0462 25.0818 13.4227 24.2806 14.3881C23.4165 15.2833 22.3131 15.9112 21.1021 16.1968C19.894 16.4768 18.7484 16.9789 17.7239 17.6776C16.767 18.4596 16.1614 19.842 16.6868 20.9598L57.9481 9.90738Z" fill="#F5F0F1"/>
<path d="M19.6427 39.0365C19.657 39.066 19.6674 39.0973 19.6737 39.1294L19.7494 39.4049C19.7876 39.5567 19.8347 39.7061 19.8906 39.8524C19.9525 40.0245 20.0179 40.2276 20.1178 40.4445L20.2692 40.7888L20.4655 41.1606C20.5328 41.2972 20.6087 41.4294 20.6927 41.5564C20.7787 41.6873 20.8545 41.8318 20.9578 41.9696C21.9248 43.3838 23.279 44.4894 24.8582 45.1539C25.3373 45.3545 25.834 45.5101 26.3419 45.6187C26.8821 45.7259 27.4281 45.8017 27.9771 45.8459C29.1028 45.956 30.3215 46.018 31.4885 46.4862C32.6673 47.0088 33.7124 47.7914 34.5455 48.7755C35.4272 49.7105 36.1401 50.7914 36.6523 51.9702C36.8839 52.5392 37.0256 53.1408 37.0723 53.7534C37.1124 54.3387 37.0754 54.9266 36.9622 55.5022C36.732 56.5572 36.4213 57.593 36.0327 58.6005C35.7013 59.4745 35.4546 60.3783 35.296 61.2995C35.1673 62.0593 35.1966 62.8374 35.382 63.5853C35.5222 64.1496 35.7765 64.6791 36.1291 65.1414C36.3518 65.4347 36.6245 65.6864 36.9346 65.885C37.1446 66.0192 37.2789 66.0709 37.2789 66.0777C37.1594 66.0304 37.0442 65.9728 36.9346 65.9056C36.6172 65.7116 36.3374 65.4621 36.1084 65.1689C35.7436 64.7066 35.4798 64.1731 35.3339 63.6025C35.1391 62.8459 35.1028 62.0571 35.2271 61.2857C35.3843 60.3594 35.6287 59.4499 35.957 58.5695C36.3391 57.5611 36.6452 56.5254 36.8727 55.4712C36.9796 54.9041 37.0143 54.3258 36.9759 53.75C36.9299 53.1499 36.7893 52.5608 36.5594 52.0046C36.0508 50.8381 35.3451 49.7679 34.4732 48.8409C33.6511 47.8704 32.6202 47.0983 31.4575 46.5826C30.3181 46.1178 29.1097 46.0559 27.9806 45.9423C27.4283 45.8937 26.879 45.8155 26.335 45.7082C25.8171 45.6041 25.31 45.452 24.8203 45.2537C23.2278 44.5785 21.8673 43.4525 20.9061 42.0143C20.8028 41.8766 20.7237 41.732 20.641 41.5978C20.5593 41.4676 20.4846 41.3331 20.4173 41.195L20.2245 40.8232L20.0765 40.4789C19.9915 40.2837 19.9179 40.0837 19.8561 39.8799C19.8044 39.7324 19.7619 39.5818 19.7288 39.4289C19.7012 39.3085 19.6771 39.2155 19.6634 39.1501C19.6536 39.1128 19.6467 39.0748 19.6427 39.0365Z" fill="#455A64"/>
<path d="M26.641 35.3874L26.7167 35.4563L26.9302 35.6628C27.0231 35.7558 27.1264 35.8797 27.2744 36.0071C27.4224 36.1345 27.5361 36.3238 27.6738 36.5304C28.0215 37.026 28.3071 37.5624 28.5241 38.1277C28.8187 38.8748 28.9941 39.6636 29.0439 40.4652C29.0673 40.9305 29.05 41.3971 28.9923 41.8594C28.9218 42.3603 28.8136 42.8551 28.6687 43.3397C28.3829 44.3449 27.9801 45.3777 27.6772 46.5103C27.5284 47.0879 27.4441 47.6802 27.4259 48.2763C27.4125 48.898 27.4761 49.5189 27.6152 50.125C27.9058 51.4102 28.4877 52.6115 29.3159 53.6364C30.1465 54.6524 31.1733 55.4907 32.335 56.1013C33.413 56.6776 34.5746 57.0818 35.7775 57.2993C36.9273 57.5127 38.0427 57.5678 39.0755 57.7261C40.0424 57.8416 40.9816 58.1259 41.8502 58.5661C43.0897 59.2608 44.0597 60.352 44.6042 61.6644C44.7517 62.017 44.8669 62.3823 44.9485 62.7557C44.9691 62.8831 44.9829 62.9795 44.9967 63.0518C44.999 63.085 44.999 63.1184 44.9967 63.1516C44.9967 63.1516 44.9967 63.1172 44.9726 63.0518C44.9485 62.9864 44.9382 62.8865 44.9141 62.7626C44.8291 62.3935 44.714 62.0319 44.5698 61.6816C44.3284 61.1324 44.0121 60.6191 43.63 60.1566C43.1237 59.5439 42.5042 59.0343 41.8054 58.6556C40.9421 58.225 40.01 57.9488 39.0514 57.8397C38.0186 57.6848 36.9067 57.6332 35.7465 57.4232C34.5324 57.203 33.3596 56.7966 32.2696 56.2183C31.0936 55.6011 30.054 54.7535 29.2126 53.7259C28.3791 52.6899 27.7907 51.479 27.4913 50.1835C27.3551 49.5677 27.2927 48.9379 27.3054 48.3073C27.324 47.703 27.4095 47.1027 27.5602 46.5172C27.8528 45.3743 28.2762 44.3415 28.5654 43.3432C28.7169 42.8648 28.8319 42.3758 28.9096 41.8801C28.9711 41.4238 28.9907 40.9629 28.9682 40.5031C28.8891 39.1034 28.4309 37.7516 27.6428 36.5923C27.5085 36.3823 27.3674 36.2171 27.2538 36.0622C27.1402 35.9072 27.0266 35.7936 26.937 35.7179L26.7339 35.501C26.6996 35.4661 26.6685 35.428 26.641 35.3874Z" fill="#455A64"/>
<path d="M43.7481 60.0567C43.6668 60.1468 43.5769 60.2287 43.4796 60.3012C43.3006 60.4561 43.0355 60.6695 42.7016 60.9243C41.8354 61.5933 40.9345 62.2162 40.0026 62.7901C39.0699 63.3638 38.1081 63.8889 37.1212 64.3634C36.7425 64.5458 36.4327 64.687 36.2193 64.7765C36.1095 64.8323 35.9941 64.8761 35.875 64.9073C35.9775 64.8424 36.0845 64.7849 36.1952 64.7352L37.0833 64.2911C37.8304 63.9124 38.8494 63.3616 39.9372 62.6903C41.0251 62.019 41.9752 61.3546 42.6499 60.8588L43.4452 60.2667C43.5405 60.1889 43.6418 60.1187 43.7481 60.0567Z" fill="#455A64"/>
<path d="M41.8977 58.6109C41.8128 58.6738 41.7216 58.728 41.6258 58.7727L40.8753 59.1789C40.2419 59.5231 39.3744 60.012 38.4345 60.5869C37.4947 61.1618 36.6685 61.7195 36.0764 62.1292L35.3879 62.618C35.3038 62.6806 35.2152 62.737 35.1228 62.7867C35.1953 62.7105 35.2748 62.6414 35.3603 62.5801C35.5187 62.4528 35.7528 62.2772 36.0488 62.0637C36.6306 61.6334 37.4569 61.0688 38.3967 60.4905C39.3365 59.9122 40.2143 59.4336 40.8581 59.1135C41.1817 58.9482 41.4433 58.8209 41.6292 58.7382C41.7151 58.6886 41.8049 58.646 41.8977 58.6109Z" fill="#455A64"/>
<path d="M39.2484 58.0532C39.0822 58.1981 38.9036 58.3283 38.7148 58.4422C38.3705 58.6659 37.9058 58.9689 37.3756 59.289C36.8455 59.6092 36.3601 59.8812 35.9986 60.0739C35.81 60.1863 35.6119 60.282 35.4065 60.3597C35.5803 60.23 35.7646 60.1149 35.9573 60.0154L37.3137 59.203L38.67 58.3871C38.8522 58.2583 39.0458 58.1465 39.2484 58.0532Z" fill="#455A64"/>
<path d="M36.7744 55.127C36.6518 55.2396 36.5166 55.3378 36.3717 55.4196L35.3768 56.0875L34.3887 56.776C34.2588 56.8794 34.118 56.9683 33.9688 57.0411C34.0761 56.9097 34.2013 56.7938 34.3405 56.6968C34.5815 56.504 34.9223 56.2527 35.3113 55.9877C35.7004 55.7226 36.0618 55.4988 36.3441 55.3473C36.4775 55.2558 36.6222 55.1817 36.7744 55.127Z" fill="#455A64"/>
<path d="M36.5767 52.5175C36.5767 52.5348 36.2841 52.6931 35.8125 52.9651C35.3409 53.237 34.6971 53.6329 34.0189 54.108C33.3407 54.5831 32.7486 55.0581 32.3321 55.4093C32.1125 55.6093 31.8827 55.7978 31.6436 55.9739C31.6905 55.9093 31.7435 55.8493 31.8019 55.7949C31.9086 55.6847 32.0704 55.5332 32.2735 55.3473C33.334 54.3899 34.5074 53.5656 35.7677 52.8928C36.0087 52.7654 36.2084 52.669 36.3461 52.6036C36.4188 52.5649 36.4964 52.5359 36.5767 52.5175Z" fill="#455A64"/>
<path d="M35.2894 50.4933C35.3066 50.5209 34.0983 51.3918 32.5905 52.4453C31.0826 53.4987 29.8364 54.3249 29.8364 54.3008C29.8364 54.2767 31.0241 53.3989 32.5319 52.3489C34.0398 51.2989 35.2688 50.4658 35.2894 50.4933Z" fill="#455A64"/>
<path d="M34.2583 48.2109C34.1867 48.2765 34.1082 48.3342 34.0242 48.383C33.8521 48.5001 33.6352 48.6481 33.3735 48.8202C32.8227 49.1886 32.0654 49.705 31.2426 50.2902C30.4198 50.8754 29.69 51.4263 29.1771 51.8256L28.5505 52.3007C28.4772 52.3627 28.3976 52.417 28.313 52.4625C28.375 52.388 28.4455 52.321 28.523 52.2628C28.6607 52.1423 28.8672 51.9702 29.1254 51.7602C29.6418 51.3436 30.3647 50.7825 31.191 50.1973C32.0172 49.612 32.7814 49.1025 33.3426 48.7514C33.6248 48.5758 33.8555 48.4381 34.0311 48.3452C34.102 48.2927 34.1781 48.2478 34.2583 48.2109Z" fill="#455A64"/>
<path d="M32.1365 46.9475C32.1572 46.9716 31.1313 47.7152 29.8506 48.6068C28.57 49.4984 27.5131 50.1938 27.4925 50.1697C27.4718 50.1456 28.5012 49.3986 29.7818 48.5104C31.0624 47.6222 32.1193 46.92 32.1365 46.9475Z" fill="#455A64"/>
<path d="M29.9078 45.6738C29.5431 46.0431 29.1494 46.3827 28.7305 46.6893C28.3373 47.0283 27.9196 47.3378 27.4808 47.6154C27.8471 47.2423 28.2406 46.8971 28.6582 46.5826C29.052 46.2495 29.4696 45.9458 29.9078 45.6738Z" fill="#455A64"/>
<path d="M28.4056 42.4756C28.2523 42.6453 28.084 42.8008 27.9029 42.9404C27.5828 43.2124 27.1284 43.5807 26.612 43.9732C26.0956 44.3656 25.6171 44.6892 25.2625 44.9199C25.078 45.0536 24.8809 45.1689 24.6738 45.2641C24.8442 45.1116 25.0261 44.9723 25.2178 44.8476C25.562 44.5997 26.0302 44.2589 26.5431 43.8768C27.0561 43.4946 27.5174 43.1366 27.8513 42.8784C28.025 42.7296 28.2103 42.5949 28.4056 42.4756Z" fill="#455A64"/>
<path d="M29.054 40.2999C28.9837 40.3676 28.9064 40.4276 28.8234 40.4789C28.6754 40.5891 28.4516 40.7406 28.1762 40.923C27.6219 41.2914 26.8439 41.7837 25.9661 42.3C25.0882 42.8164 24.2723 43.2364 23.6768 43.5325C23.3807 43.6805 23.1363 43.7976 22.9676 43.8767C22.8826 43.9235 22.7925 43.9604 22.6991 43.9869C22.777 43.93 22.8599 43.8804 22.947 43.8389L23.6355 43.4636C24.2207 43.1504 25.0125 42.7097 25.9041 42.2002C26.7957 41.6907 27.5634 41.2156 28.128 40.8645L28.7959 40.4514C28.8758 40.3912 28.9625 40.3403 29.054 40.2999Z" fill="#455A64"/>
<path d="M28.0184 37.9762C27.9401 38.0462 27.856 38.1096 27.7671 38.1656C27.6019 38.2826 27.3609 38.4479 27.0579 38.651C26.4555 39.0503 25.6155 39.5942 24.6757 40.176C23.7359 40.7578 22.8787 41.2673 22.2659 41.6253C21.9526 41.8043 21.6979 41.9489 21.5189 42.0453C21.4285 42.0986 21.3342 42.1446 21.2366 42.183C21.3168 42.1153 21.4032 42.0554 21.4948 42.004L22.2246 41.553L24.6344 40.0762L27.0442 38.5821L27.774 38.1277C27.8505 38.0696 27.9323 38.0189 28.0184 37.9762Z" fill="#455A64"/>
<path d="M118.599 106.603C118.582 106.621 118.328 106.366 117.832 105.942C117.584 105.732 117.278 105.478 116.906 105.206C116.486 104.898 116.044 104.622 115.584 104.38C115.318 104.243 115.042 104.128 114.758 104.035C114.46 103.927 114.145 103.871 113.828 103.87C113.671 103.87 113.517 103.906 113.377 103.977C113.24 104.048 113.131 104.163 113.067 104.304C113.001 104.458 112.969 104.625 112.974 104.793C112.977 104.974 113 105.154 113.043 105.33C113.135 105.703 113.269 106.064 113.443 106.407C113.624 106.772 113.827 107.125 114.052 107.464C115.016 108.888 116.223 110.132 117.618 111.137C117.948 111.373 118.293 111.587 118.651 111.778C118.989 111.963 119.347 112.108 119.718 112.211C119.892 112.26 120.071 112.289 120.252 112.297C120.419 112.307 120.586 112.28 120.741 112.218C120.886 112.16 121.008 112.055 121.085 111.919C121.159 111.781 121.2 111.628 121.205 111.471C121.216 111.153 121.169 110.836 121.068 110.535C120.974 110.248 120.859 109.968 120.724 109.698C120.494 109.231 120.23 108.781 119.935 108.352C119.674 107.974 119.433 107.664 119.226 107.406C118.82 106.9 118.572 106.634 118.589 106.617C118.606 106.6 118.665 106.669 118.792 106.789C118.92 106.91 119.095 107.089 119.312 107.333C119.579 107.629 119.83 107.938 120.066 108.259C120.381 108.686 120.662 109.137 120.906 109.609C121.046 109.887 121.167 110.175 121.267 110.469C121.383 110.801 121.438 111.151 121.429 111.502C121.426 111.696 121.376 111.886 121.285 112.056C121.186 112.239 121.028 112.384 120.837 112.466C120.648 112.545 120.443 112.582 120.238 112.573C120.037 112.567 119.837 112.538 119.643 112.487C119.252 112.38 118.874 112.23 118.517 112.039C118.144 111.834 117.785 111.604 117.443 111.351C116.013 110.331 114.78 109.059 113.804 107.598C113.572 107.25 113.364 106.887 113.181 106.51C113.002 106.147 112.865 105.765 112.771 105.371C112.724 105.176 112.701 104.976 112.702 104.775C112.697 104.57 112.739 104.366 112.826 104.18C112.915 103.991 113.064 103.837 113.25 103.743C113.423 103.658 113.614 103.614 113.807 103.615C114.154 103.619 114.496 103.684 114.82 103.808C115.111 103.916 115.394 104.046 115.666 104.197C116.13 104.454 116.572 104.747 116.988 105.075C117.357 105.364 117.656 105.629 117.894 105.856C118.131 106.084 118.307 106.266 118.42 106.393C118.534 106.521 118.606 106.597 118.599 106.603Z" fill="#455A64"/>
<path d="M115.3 107.43C115.321 107.43 115.221 107.774 115.09 108.387C115.025 108.697 114.952 109.075 114.894 109.516C114.827 110.014 114.8 110.517 114.811 111.02C114.818 111.31 114.848 111.599 114.901 111.884C114.951 112.187 115.055 112.479 115.207 112.745C115.285 112.875 115.391 112.987 115.517 113.072C115.643 113.154 115.791 113.194 115.941 113.189C116.104 113.185 116.265 113.145 116.412 113.072C116.568 112.992 116.714 112.894 116.846 112.779C117.127 112.536 117.38 112.261 117.6 111.96C117.832 111.643 118.042 111.311 118.23 110.965C119.012 109.497 119.519 107.899 119.727 106.249C119.772 105.859 119.792 105.467 119.786 105.075C119.78 104.703 119.733 104.332 119.645 103.97C119.6 103.801 119.538 103.637 119.459 103.481C119.386 103.337 119.283 103.21 119.156 103.109C119.037 103.017 118.893 102.964 118.743 102.958C118.591 102.955 118.441 102.985 118.302 103.047C118.024 103.176 117.771 103.354 117.555 103.571C117.348 103.775 117.157 103.994 116.984 104.228C116.679 104.629 116.408 105.054 116.171 105.498C115.965 105.891 115.806 106.242 115.682 106.531C115.434 107.113 115.321 107.443 115.3 107.437C115.303 107.35 115.321 107.266 115.352 107.185C115.397 107.023 115.469 106.789 115.576 106.497C115.682 106.204 115.83 105.839 116.027 105.433C116.249 104.97 116.511 104.527 116.808 104.108C116.981 103.861 117.176 103.631 117.39 103.419C117.621 103.175 117.895 102.976 118.199 102.83C118.369 102.754 118.553 102.715 118.739 102.717C118.941 102.722 119.135 102.789 119.297 102.91C119.454 103.031 119.583 103.185 119.676 103.361C119.767 103.533 119.839 103.716 119.889 103.905C119.987 104.285 120.04 104.675 120.047 105.068C120.059 105.474 120.042 105.88 119.996 106.283C119.795 107.972 119.275 109.608 118.464 111.103C118.269 111.462 118.05 111.807 117.806 112.136C117.574 112.452 117.304 112.74 117.004 112.993C116.855 113.118 116.692 113.225 116.519 113.313C116.342 113.405 116.147 113.457 115.947 113.464C115.747 113.469 115.55 113.413 115.383 113.303C115.229 113.196 115.1 113.057 115.004 112.896C114.841 112.603 114.733 112.282 114.684 111.95C114.633 111.653 114.607 111.352 114.608 111.051C114.606 110.537 114.649 110.023 114.736 109.516C114.798 109.136 114.879 108.759 114.98 108.387C115.063 108.08 115.142 107.846 115.197 107.698C115.215 107.603 115.25 107.512 115.3 107.43Z" fill="#455A64"/>
<path d="M116.429 105.843C116.429 105.867 116.085 105.956 115.503 106.17C115.207 106.276 114.849 106.414 114.439 106.597C113.98 106.802 113.538 107.044 113.117 107.32C112.873 107.476 112.643 107.654 112.429 107.85C112.197 108.05 112.005 108.292 111.861 108.562C111.79 108.697 111.75 108.845 111.744 108.996C111.741 109.147 111.785 109.295 111.871 109.419C111.96 109.552 112.078 109.662 112.215 109.743C112.365 109.833 112.525 109.905 112.69 109.96C113.047 110.069 113.414 110.138 113.785 110.167C114.177 110.192 114.571 110.192 114.963 110.167C115.791 110.118 116.613 109.99 117.417 109.784C118.223 109.583 119.008 109.307 119.761 108.958C120.118 108.791 120.462 108.601 120.794 108.39C121.108 108.195 121.398 107.964 121.658 107.702C121.781 107.576 121.887 107.437 121.975 107.285C122.06 107.148 122.115 106.994 122.133 106.834C122.149 106.685 122.119 106.535 122.047 106.404C121.97 106.268 121.864 106.151 121.737 106.06C121.48 105.896 121.196 105.779 120.898 105.715C120.616 105.646 120.329 105.599 120.04 105.574C119.538 105.535 119.034 105.535 118.532 105.574C118.088 105.609 117.706 105.657 117.393 105.702C116.773 105.798 116.433 105.877 116.426 105.853C116.501 105.812 116.582 105.783 116.667 105.767C116.825 105.719 117.063 105.657 117.376 105.591C117.689 105.526 118.064 105.464 118.519 105.416C119.03 105.362 119.545 105.35 120.058 105.381C120.358 105.399 120.656 105.443 120.949 105.512C121.279 105.579 121.593 105.707 121.875 105.891C122.031 105.994 122.161 106.13 122.257 106.29C122.359 106.464 122.404 106.665 122.385 106.865C122.367 107.064 122.305 107.255 122.202 107.426C122.105 107.594 121.99 107.75 121.858 107.891C121.585 108.176 121.28 108.428 120.949 108.641C120.609 108.864 120.255 109.063 119.889 109.237C119.115 109.598 118.308 109.882 117.479 110.087C116.657 110.297 115.817 110.425 114.969 110.469C114.564 110.492 114.158 110.485 113.754 110.449C113.362 110.418 112.975 110.34 112.601 110.218C112.415 110.158 112.237 110.076 112.071 109.974C111.902 109.87 111.756 109.731 111.644 109.568C111.535 109.4 111.479 109.203 111.486 109.003C111.494 108.815 111.545 108.632 111.634 108.466C111.796 108.172 112.011 107.911 112.267 107.695C112.494 107.497 112.737 107.317 112.993 107.158C113.432 106.89 113.893 106.66 114.37 106.469C114.727 106.322 115.092 106.194 115.462 106.084C115.765 105.994 116.006 105.936 116.167 105.901C116.251 105.868 116.339 105.848 116.429 105.843Z" fill="#455A64"/>
<path d="M118.164 107.829C118.209 108.006 118.199 108.192 118.138 108.364C118.076 108.536 117.965 108.685 117.819 108.794C117.672 108.903 117.496 108.965 117.314 108.974C117.132 108.983 116.951 108.938 116.795 108.844C116.638 108.75 116.513 108.612 116.435 108.447C116.357 108.282 116.33 108.098 116.357 107.917C116.384 107.737 116.463 107.568 116.586 107.433C116.709 107.298 116.868 107.202 117.046 107.158C117.283 107.099 117.534 107.137 117.743 107.263C117.953 107.389 118.104 107.592 118.164 107.829Z" fill="#455A64"/>
<path d="M136.971 92.0243L136.867 91.9761L136.568 91.8246L135.415 91.2256L131.177 88.9983H131.215L118.161 93.9865L118.043 94.0313L118.078 93.9108L118.477 92.4684C119.389 89.1773 120.254 86.0618 121.011 83.3215V83.3009L128.24 77.8823L130.306 76.3538L130.853 75.951L130.994 75.8512C131.024 75.8259 131.041 75.8156 131.046 75.8202L131.001 75.858L130.864 75.9682L130.326 76.3813L128.288 77.9339L121.08 83.3904L121.1 83.3594C120.343 86.1134 119.486 89.2117 118.577 92.5131C118.439 93.0054 118.305 93.4977 118.178 93.9555L118.095 93.8798L131.177 88.926H131.197L135.415 91.1877L136.554 91.804L136.85 91.9692L136.971 92.0243Z" fill="#FF3F58"/>
<path d="M119.835 93.8282L119.054 94.0588L118.803 94.8334L118.341 94.1621H117.526L118.021 93.5149L117.77 92.7403L118.538 93.0123L119.195 92.5338L119.174 93.3496L119.835 93.8282Z" fill="#FF3F58"/>
<path d="M122.091 83.0702L121.599 83.2492L121.465 83.7587L121.141 83.3456L120.614 83.3766L120.91 82.9394L120.718 82.4505L121.224 82.5951L121.63 82.2612L121.647 82.7879L122.091 83.0702Z" fill="#FF3F58"/>
<path d="M131.977 75.4863L131.619 76.0267L131.857 76.6257L131.233 76.4502L130.738 76.8633L130.71 76.2161L130.166 75.8718L130.772 75.6481L130.931 75.0215L131.333 75.5276L131.977 75.4863Z" fill="#FF3F58"/>
<path d="M137.764 91.3426L137.402 91.8831L137.643 92.4821L137.02 92.3066L136.521 92.7197L136.497 92.0725L135.95 91.7282L136.555 91.5044L136.717 90.8779L137.117 91.384L137.764 91.3426Z" fill="#FF3F58"/>
<path d="M131.689 88.6884L131.458 89.0327L131.613 89.4148L131.213 89.3012L130.897 89.5663L130.883 89.1532L130.532 88.9328L130.921 88.7883L131.021 88.3889L131.279 88.716L131.689 88.6884Z" fill="#FF3F58"/>
<path d="M103.708 31.4879C104.489 26.6975 101.24 22.1803 96.4495 21.3984C91.6591 20.6165 87.1418 23.866 86.3599 28.6564C85.5781 33.4469 88.8276 37.9641 93.618 38.746C98.4084 39.5279 102.926 36.2783 103.708 31.4879Z" fill="#FF3F58"/>
<g opacity="0.3">
<path opacity="0.3" d="M93.8813 32.8208C93.8813 33.1042 93.7973 33.3812 93.6399 33.6168C93.4824 33.8524 93.2587 34.036 92.9969 34.1445C92.7351 34.2529 92.447 34.2813 92.1691 34.226C91.8912 34.1707 91.6359 34.0343 91.4355 33.8339C91.2351 33.6335 91.0987 33.3782 91.0434 33.1003C90.9881 32.8224 91.0165 32.5343 91.1249 32.2725C91.2334 32.0107 91.417 31.787 91.6526 31.6295C91.8882 31.4721 92.1652 31.3881 92.4486 31.3881C92.8286 31.3881 93.193 31.539 93.4617 31.8077C93.7304 32.0764 93.8813 32.4408 93.8813 32.8208Z" fill="white"/>
</g>
<g opacity="0.3">
<path opacity="0.3" d="M91.8666 28.6829C91.8666 28.8476 91.8178 29.0087 91.7262 29.1457C91.6347 29.2827 91.5046 29.3895 91.3523 29.4525C91.2001 29.5156 91.0326 29.5321 90.871 29.5C90.7094 29.4678 90.561 29.3885 90.4444 29.272C90.3279 29.1554 90.2486 29.007 90.2164 28.8454C90.1843 28.6838 90.2008 28.5163 90.2639 28.3641C90.3269 28.2118 90.4337 28.0817 90.5707 27.9902C90.7077 27.8987 90.8688 27.8498 91.0335 27.8498C91.2545 27.8498 91.4664 27.9376 91.6226 28.0938C91.7788 28.25 91.8666 28.4619 91.8666 28.6829Z" fill="white"/>
</g>
<path d="M86.5149 32.2166C86.5561 32.3677 78.9942 39.6228 80.9442 41.17C82.8942 42.7171 91.0923 38.7485 98.0819 33.1046C105.072 27.4607 111.453 20.6038 109.704 18.7911C107.955 16.9785 99.2263 22.3478 99.2263 22.3478L100.288 23.0115C100.288 23.0115 105.566 19.6242 107.237 20.9379C108.907 22.2516 104.147 27.392 97.4274 32.299C90.7078 37.206 84.2125 40.6482 83.2054 39.3024C82.1984 37.9567 86.9543 33.4754 86.9543 33.4754L86.5149 32.2166Z" fill="#FF3F58"/>
<g opacity="0.3">
<path opacity="0.3" d="M86.5175 32.2166C86.5587 32.3677 78.9968 39.6228 80.9468 41.17C82.8967 42.7171 91.0948 38.7485 98.0845 33.1046C105.074 27.4607 111.455 20.6038 109.707 18.7911C107.958 16.9785 99.2289 22.3478 99.2289 22.3478L100.291 23.0115C100.291 23.0115 105.569 19.6242 107.239 20.9379C108.91 22.2516 104.15 27.392 97.4299 32.299C90.7103 37.206 84.215 40.6482 83.208 39.3024C82.201 37.9567 86.9569 33.4754 86.9569 33.4754L86.5175 32.2166Z" fill="black"/>
</g>
<g opacity="0.3">
<path opacity="0.3" d="M90.2179 23.8857C90.2866 23.9727 89.6915 24.4762 89.0186 25.4924C88.1244 26.7949 87.631 28.3307 87.5993 29.9103C87.5676 31.49 87.9989 33.0443 88.8401 34.3817C89.4764 35.4208 90.0486 35.9517 89.9753 36.0341C89.9021 36.1165 89.2246 35.6863 88.4419 34.6609C87.9888 34.0509 87.6294 33.3767 87.3754 32.6606C86.7261 30.88 86.7652 28.921 87.4852 27.1677C87.7668 26.4627 88.1526 25.8038 88.6296 25.2132C89.4352 24.2062 90.1584 23.8262 90.2179 23.8857Z" fill="white"/>
</g>
<path d="M101.464 38.737C101.482 37.978 101.724 37.2413 102.161 36.6202C102.598 35.9991 103.209 35.5214 103.917 35.2476C104.625 34.9737 105.398 34.916 106.139 35.0818C106.88 35.2475 107.555 35.6292 108.079 36.1787C108.603 36.7282 108.952 37.4207 109.083 38.1686C109.213 38.9166 109.119 39.6864 108.811 40.3807C108.504 41.075 107.998 41.6626 107.357 42.0692C106.716 42.4758 105.968 42.6831 105.209 42.665C104.192 42.6406 103.226 42.2131 102.523 41.4765C101.821 40.7399 101.44 39.7545 101.464 38.737Z" fill="#FF3F58"/>
<g opacity="0.4">
<path opacity="0.4" d="M106.553 37.36C106.556 37.236 106.596 37.1156 106.667 37.0141C106.738 36.9125 106.838 36.8344 106.954 36.7897C107.069 36.7449 107.196 36.7355 107.317 36.7626C107.438 36.7898 107.548 36.8522 107.633 36.9421C107.719 37.032 107.776 37.1452 107.797 37.2674C107.818 37.3897 107.802 37.5154 107.752 37.6287C107.702 37.7421 107.619 37.8379 107.514 37.904C107.409 37.9702 107.287 38.0037 107.163 38.0003C107.08 37.9985 106.999 37.9805 106.924 37.9473C106.849 37.9141 106.781 37.8664 106.725 37.8069C106.668 37.7474 106.624 37.6773 106.594 37.6006C106.565 37.5239 106.551 37.4421 106.553 37.36Z" fill="black"/>
</g>
<g opacity="0.4">
<path opacity="0.4" d="M107.808 38.8196C107.81 38.7471 107.834 38.6768 107.876 38.6178C107.918 38.5589 107.977 38.5138 108.045 38.4885C108.113 38.4632 108.187 38.4588 108.258 38.4757C108.329 38.4927 108.393 38.5303 108.442 38.5838C108.491 38.6373 108.523 38.7042 108.533 38.776C108.544 38.8477 108.534 38.9211 108.502 38.9867C108.471 39.0523 108.421 39.1071 108.359 39.1442C108.297 39.1813 108.225 39.1989 108.152 39.1949C108.058 39.1887 107.969 39.1462 107.905 39.0763C107.841 39.0064 107.806 38.9145 107.808 38.8196Z" fill="black"/>
</g>
<g opacity="0.4">
<path opacity="0.4" d="M107.314 39.9384C107.35 39.9393 107.384 39.9542 107.409 39.98C107.434 40.0057 107.448 40.0402 107.448 40.0761C107.448 40.0938 107.444 40.1112 107.437 40.1273C107.429 40.1434 107.419 40.1579 107.406 40.1701C107.394 40.1822 107.379 40.1917 107.362 40.1981C107.346 40.2044 107.328 40.2074 107.31 40.207C107.293 40.207 107.275 40.2034 107.259 40.1964C107.242 40.1894 107.228 40.1791 107.215 40.1662C107.203 40.1534 107.194 40.1381 107.188 40.1214C107.181 40.1048 107.179 40.087 107.18 40.0693C107.181 40.0343 107.195 40.001 107.22 39.9765C107.245 39.9521 107.279 39.9384 107.314 39.9384Z" fill="black"/>
</g>
<path d="M117.961 45.8493C117.684 45.4483 117.438 45.0272 117.224 44.5893H117.327V44.6169C117.149 45.0822 116.939 45.5343 116.697 45.9698C116.833 45.4903 117.008 45.0228 117.22 44.5721V44.5446L117.269 44.4344L117.324 44.5377C117.571 44.9571 117.784 45.3958 117.961 45.8493Z" fill="#263238"/>
<path d="M117.192 43.0987C117.172 43.1228 116.993 43.0058 116.848 42.7889C116.703 42.572 116.669 42.362 116.7 42.3551C116.731 42.3483 116.814 42.5273 116.944 42.7269C117.075 42.9266 117.213 43.0746 117.192 43.0987Z" fill="#263238"/>
<path d="M116.855 43.7253C116.92 43.4584 117.013 43.1989 117.131 42.9507C117.209 42.6877 117.315 42.4338 117.447 42.1933C117.426 42.4701 117.355 42.7407 117.237 42.992C117.156 43.2578 117.027 43.5064 116.855 43.7253Z" fill="#263238"/>
<path d="M115.756 48.5208C115.835 48.3019 115.902 48.079 115.956 47.8529C115.968 47.6236 115.968 47.3938 115.956 47.1644C116.078 47.382 116.114 47.6377 116.056 47.8804C116.039 48.1237 115.932 48.352 115.756 48.5208Z" fill="#263238"/>
<path d="M115.969 47.6153C115.969 47.6153 115.942 47.7083 115.804 47.7427C115.722 47.76 115.637 47.7452 115.566 47.7014C115.524 47.6713 115.49 47.6321 115.465 47.5867C115.44 47.5414 115.426 47.4911 115.424 47.4395C115.421 47.3879 115.43 47.3364 115.45 47.2888C115.47 47.2412 115.5 47.1986 115.539 47.1644C115.607 47.116 115.69 47.094 115.773 47.1024C115.914 47.1024 115.962 47.2057 115.949 47.2126C115.935 47.2194 115.876 47.1781 115.77 47.185C115.737 47.1844 115.706 47.1906 115.676 47.203C115.646 47.2155 115.62 47.2339 115.598 47.2573C115.576 47.2806 115.559 47.3083 115.548 47.3385C115.537 47.3687 115.533 47.4009 115.535 47.4329C115.537 47.465 115.545 47.4965 115.558 47.5256C115.572 47.5546 115.592 47.5805 115.616 47.6018C115.64 47.623 115.668 47.6391 115.699 47.6492C115.729 47.6592 115.762 47.6629 115.794 47.6601C115.9 47.6635 115.955 47.6016 115.969 47.6153Z" fill="#263238"/>
<path d="M11.9646 66.9418L12.8838 83.0633L39.8562 81.5245L11.9646 66.9418ZM16.4709 73.1969L28.0723 79.3935L16.8599 80.0235L16.4709 73.1969Z" fill="#FF3F58"/>
<path d="M14.6438 68.3499C14.5578 68.7051 14.4135 69.0436 14.2169 69.3516C14.0717 69.6895 13.8704 70.0003 13.6213 70.2708C13.7056 69.9118 13.8499 69.5696 14.0482 69.2587C14.1952 68.925 14.3965 68.6179 14.6438 68.3499Z" fill="#263238"/>
<path d="M18.7807 70.4877C18.6945 70.8385 18.5503 71.1725 18.3538 71.4757C18.2113 71.8051 18.0121 72.1069 17.7651 72.3673C17.8484 72.0161 17.9917 71.6818 18.1886 71.3793C18.3304 71.0487 18.531 70.7466 18.7807 70.4877Z" fill="#263238"/>
<path d="M22.9169 72.6255C22.7968 72.964 22.6199 73.2795 22.3936 73.5584C22.2168 73.8738 21.9834 74.1539 21.7051 74.3846C21.8246 74.0449 22.0016 73.7281 22.2283 73.4483C22.407 73.1351 22.6401 72.8565 22.9169 72.6255Z" fill="#263238"/>
<path d="M26.9845 74.8597C26.8684 75.201 26.6911 75.5183 26.4612 75.7961C26.2804 76.1086 26.0475 76.3881 25.7727 76.6223C25.8888 76.281 26.0661 75.9637 26.296 75.6859C26.4768 75.3734 26.7097 75.0939 26.9845 74.8597Z" fill="#263238"/>
<path d="M31.2325 77.0388C31.1318 77.395 30.9711 77.7315 30.7575 78.0337C30.5978 78.3654 30.3837 78.6679 30.124 78.9288C30.3796 78.2386 30.7549 77.5988 31.2325 77.0388Z" fill="#263238"/>
<path d="M35.6424 79.335C35.5611 79.6724 35.4188 79.9921 35.2224 80.2783C35.0792 80.5941 34.881 80.882 34.6372 81.1286C34.7204 80.7902 34.8638 80.4695 35.0606 80.1819C35.2004 79.866 35.3977 79.5788 35.6424 79.335Z" fill="#263238"/>
<path d="M15.9337 69.0246C15.9785 69.0521 15.9027 69.2862 15.7616 69.5547C15.6204 69.8233 15.469 70.0126 15.4173 69.9885C15.3657 69.9644 15.4483 69.7269 15.5895 69.4618C15.7306 69.1967 15.889 69.0074 15.9337 69.0246Z" fill="#263238"/>
<path d="M17.2868 69.6959C17.335 69.72 17.2558 69.9575 17.1146 70.2226C16.9735 70.4877 16.8255 70.6839 16.7704 70.6598C16.7153 70.6357 16.8048 70.3982 16.9425 70.1297C17.0802 69.8611 17.242 69.6752 17.2868 69.6959Z" fill="#263238"/>
<path d="M20.306 71.2967C20.3508 71.3242 20.2751 71.5583 20.1339 71.8268C19.9928 72.0954 19.8413 72.2881 19.7897 72.2606C19.738 72.2331 19.8206 71.999 19.9618 71.7339C20.1029 71.4688 20.2613 71.2726 20.306 71.2967Z" fill="#263238"/>
<path d="M21.6637 71.9748C21.7085 71.9989 21.6327 72.2365 21.4916 72.5016C21.3504 72.7666 21.199 72.9629 21.1473 72.9388C21.0957 72.9147 21.1783 72.6771 21.3194 72.4086C21.4606 72.1401 21.6155 71.9507 21.6637 71.9748Z" fill="#263238"/>
<path d="M24.3939 73.5033C24.4421 73.5274 24.3629 73.765 24.2218 74.03C24.0807 74.2951 23.9326 74.4913 23.8775 74.4673C23.8225 74.4432 23.9085 74.2056 24.0497 73.9371C24.1908 73.6686 24.3492 73.4827 24.3939 73.5033Z" fill="#263238"/>
<path d="M25.687 74.1712C25.7352 74.1953 25.656 74.4328 25.5149 74.6979C25.3737 74.963 25.2257 75.1592 25.1706 75.1351C25.1156 75.111 25.2016 74.87 25.3428 74.605C25.4839 74.3399 25.6423 74.1712 25.687 74.1712Z" fill="#263238"/>
<path d="M28.4786 75.6308C28.5234 75.6584 28.4477 75.8925 28.3065 76.161C28.1654 76.4295 28.0173 76.6189 27.9623 76.5948C27.9072 76.5707 27.9932 76.3331 28.1344 76.068C28.2755 75.803 28.4339 75.6067 28.4786 75.6308Z" fill="#263238"/>
<path d="M29.9799 76.4261C30.0246 76.4536 29.9489 76.6877 29.8077 76.9562C29.6666 77.2247 29.5151 77.4175 29.4635 77.39C29.4118 77.3624 29.4945 77.1284 29.6356 76.8633C29.7768 76.5982 29.9351 76.402 29.9799 76.4261Z" fill="#263238"/>
<path d="M32.6782 77.8478C32.723 77.8719 32.6472 78.1095 32.5061 78.3745C32.365 78.6396 32.2135 78.8358 32.1618 78.8117C32.1102 78.7876 32.1928 78.5501 32.334 78.2816C32.4751 78.0131 32.63 77.8237 32.6782 77.8478Z" fill="#263238"/>
<path d="M34.2321 78.6465C34.2768 78.6741 34.2011 78.9116 34.0599 79.1767C33.9188 79.4418 33.7673 79.638 33.7157 79.6104C33.664 79.5829 33.7467 79.3488 33.8878 79.0837C34.029 78.8187 34.1873 78.6224 34.2321 78.6465Z" fill="#263238"/>
<path d="M58.0956 44.5102C58.0956 44.5102 58.0956 44.4895 58.0956 44.4517C58.0956 44.4138 58.0956 44.3518 58.0956 44.2795C58.0956 44.1281 58.0956 43.9077 58.0956 43.622C58.0956 43.0437 58.0956 42.2037 58.0956 41.1365C58.0956 39.0021 58.0784 35.9727 58.068 32.3098L58.1197 32.358H45.9193L45.9743 32.2995C45.9743 36.7748 45.9743 40.954 45.9743 44.4999L45.9262 44.4482L54.7529 44.4758H57.2384H57.259H54.7873L45.9262 44.4999H45.8401V44.4482C45.8401 40.9024 45.8401 36.7163 45.8401 32.2478V32.1893H45.8986H58.099H58.1472V32.2409C58.1472 35.9038 58.13 38.9574 58.1231 41.1021C58.1231 42.1624 58.1231 42.9989 58.1231 43.5738C58.1231 43.8561 58.1231 44.0695 58.1231 44.221V44.4413L58.0956 44.5102Z" fill="#FF3F58"/>
<path d="M58.0938 44.5102C58.1233 44.4863 58.1543 44.4644 58.1868 44.4448L58.4656 44.2658L59.5466 43.5773L63.5193 41.1227L63.4986 41.1606C63.4986 37.9762 63.4986 33.7591 63.4986 29.1426L63.5537 29.2012H63.5227H51.4945H51.5151L47.4082 31.4836L46.2859 32.1101L45.9933 32.2685L45.8934 32.3201C45.9234 32.2979 45.9544 32.2772 45.9864 32.2581L46.2756 32.086L47.3841 31.4423L51.46 29.1013H63.4883H63.5778V29.1598C63.5778 33.7763 63.5778 37.9934 63.5778 41.1778V41.2019H63.5572L59.5638 43.6427L58.4725 44.3036L58.1868 44.4723L58.0938 44.5102Z" fill="#FF3F58"/>
<path d="M63.5404 29.1289C63.5576 29.1564 62.3527 29.8897 60.8483 30.7675C59.3439 31.6454 58.0942 32.3373 58.0942 32.3098C58.0942 32.2822 59.2819 31.549 60.7898 30.6677C62.2976 29.7864 63.5266 29.1013 63.5404 29.1289Z" fill="#FF3F58"/>
<path d="M46.4729 44.0075C46.4729 44.0351 46.3696 44.1349 46.2113 44.2244C46.0529 44.3139 45.9083 44.369 45.8946 44.3415C45.8808 44.3139 45.9944 44.2175 46.1528 44.1246C46.3111 44.0316 46.4557 43.98 46.4729 44.0075Z" fill="#FF3F58"/>
<path d="M47.6288 43.3432C47.646 43.3707 47.529 43.4705 47.3672 43.56C47.2054 43.6495 47.0642 43.7046 47.0504 43.6771C47.0367 43.6495 47.1503 43.5531 47.3121 43.4602C47.4739 43.3672 47.6116 43.3156 47.6288 43.3432Z" fill="#FF3F58"/>
<path d="M48.7872 42.6787C48.8044 42.7063 48.6873 42.8061 48.529 42.8956C48.3706 42.9851 48.226 43.0402 48.2088 43.0127C48.1916 42.9851 48.3087 42.8887 48.4705 42.7958C48.6323 42.7028 48.7734 42.6512 48.7872 42.6787Z" fill="#FF3F58"/>
<path d="M49.9465 42.0143C49.9465 42.0419 49.8432 42.1383 49.6848 42.2312C49.5265 42.3242 49.3819 42.3758 49.3647 42.3483C49.3475 42.3207 49.468 42.2243 49.6263 42.1314C49.7847 42.0384 49.9293 41.9868 49.9465 42.0143Z" fill="#FF3F58"/>
<path d="M51.1041 41.3499C51.1041 41.3775 51.0043 41.4739 50.8425 41.5668C50.6807 41.6598 50.5396 41.7114 50.5258 41.6839C50.512 41.6563 50.6256 41.5599 50.784 41.467C50.9423 41.374 51.0869 41.3224 51.1041 41.3499Z" fill="#FF3F58"/>
<path d="M51.3941 40.1829C51.4251 40.1829 51.4492 40.3309 51.4492 40.5271C51.4492 40.7234 51.4217 40.8714 51.3872 40.8714C51.3528 40.8714 51.3322 40.7234 51.3322 40.5271C51.3322 40.3309 51.3631 40.1794 51.3941 40.1829Z" fill="#FF3F58"/>
<path d="M51.4055 38.8472C51.4365 38.8472 51.464 38.9952 51.4606 39.1914C51.4571 39.3876 51.433 39.5357 51.402 39.5357C51.371 39.5357 51.3435 39.3842 51.3435 39.1914C51.3435 38.9986 51.3745 38.8472 51.4055 38.8472Z" fill="#FF3F58"/>
<path d="M51.4169 37.5115C51.4479 37.5115 51.4755 37.6629 51.472 37.8557C51.4686 38.0485 51.4445 38.2 51.4135 38.2C51.3825 38.2 51.355 38.0485 51.355 37.8557C51.355 37.6629 51.386 37.5115 51.4169 37.5115Z" fill="#FF3F58"/>
<path d="M51.4253 36.1758C51.4563 36.1758 51.4838 36.3272 51.4804 36.52C51.4769 36.7128 51.4528 36.8643 51.4218 36.8643C51.3908 36.8643 51.3633 36.7162 51.3667 36.52C51.3702 36.3238 51.3943 36.1758 51.4253 36.1758Z" fill="#FF3F58"/>
<path d="M51.4366 34.8435C51.4676 34.8435 51.4951 34.9915 51.4917 35.1877C51.4883 35.384 51.4642 35.532 51.4332 35.532C51.4022 35.532 51.3747 35.384 51.3781 35.1877C51.3815 34.9915 51.4056 34.8435 51.4366 34.8435Z" fill="#FF3F58"/>
<path d="M51.4481 33.5078C51.4825 33.5078 51.5066 33.6558 51.5032 33.852C51.4997 34.0483 51.4756 34.1963 51.4447 34.1963C51.4137 34.1963 51.3861 34.0448 51.3896 33.852C51.393 33.6593 51.4171 33.5078 51.4481 33.5078Z" fill="#FF3F58"/>
<path d="M51.4576 32.1721C51.492 32.1721 51.5161 32.3235 51.5127 32.5163C51.5093 32.7091 51.4852 32.8606 51.4542 32.8606C51.4232 32.8606 51.3957 32.7091 51.3991 32.5163C51.4025 32.3235 51.4266 32.1721 51.4576 32.1721Z" fill="#FF3F58"/>
<path d="M51.469 30.8363C51.5034 30.8363 51.5275 30.9878 51.5241 31.1806C51.5206 31.3734 51.4965 31.5248 51.4655 31.5248C51.4345 31.5248 51.407 31.3768 51.4104 31.1806C51.4139 30.9844 51.438 30.8363 51.469 30.8363Z" fill="#FF3F58"/>
<path d="M51.4804 29.5041C51.5149 29.5041 51.539 29.6521 51.5355 29.8483C51.5321 30.0446 51.508 30.1926 51.477 30.1926C51.446 30.1926 51.4185 30.0446 51.4219 29.8483C51.4254 29.6521 51.4495 29.5041 51.4804 29.5041Z" fill="#FF3F58"/>
<path d="M62.8779 41.1502C62.8779 41.1227 63.026 41.0986 63.2222 41.0986C63.4184 41.0986 63.5664 41.1227 63.5664 41.1502C63.5664 41.1778 63.4184 41.2053 63.2222 41.2053C63.026 41.2053 62.8779 41.1812 62.8779 41.1502Z" fill="#FF3F58"/>
<path d="M61.541 41.1502C61.541 41.1227 61.689 41.0986 61.8853 41.0986C62.0815 41.0986 62.2295 41.1227 62.2295 41.1502C62.2295 41.1778 62.0781 41.2053 61.8853 41.2053C61.6925 41.2053 61.541 41.1812 61.541 41.1502Z" fill="#FF3F58"/>
<path d="M60.2062 41.1502C60.2062 41.1227 60.3542 41.0986 60.5504 41.0986C60.7467 41.0986 60.8947 41.1227 60.8947 41.1502C60.8947 41.1778 60.7467 41.2053 60.5504 41.2053C60.3542 41.2053 60.2062 41.1812 60.2062 41.1502Z" fill="#FF3F58"/>
<path d="M58.8674 41.1502C58.8674 41.1227 59.0189 41.0986 59.2117 41.0986C59.4045 41.0986 59.5559 41.1227 59.5559 41.1502C59.5559 41.1778 59.4079 41.2053 59.2117 41.2053C59.0155 41.2053 58.8674 41.1812 58.8674 41.1502Z" fill="#FF3F58"/>
<path d="M57.542 41.1502C57.542 41.1227 57.69 41.0986 57.8862 41.0986C58.0825 41.0986 58.2305 41.1227 58.2305 41.1502C58.2305 41.1778 58.0825 41.2053 57.8862 41.2053C57.69 41.2053 57.542 41.1812 57.542 41.1502Z" fill="#FF3F58"/>
<path d="M56.2014 41.1502C56.2014 41.1227 56.3494 41.0986 56.5457 41.0986C56.7419 41.0986 56.8899 41.1227 56.8899 41.1502C56.8899 41.1778 56.7385 41.2053 56.5457 41.2053C56.3529 41.2053 56.2014 41.1812 56.2014 41.1502Z" fill="#FF3F58"/>
<path d="M54.8646 41.1502C54.8646 41.1227 55.0127 41.0986 55.2089 41.0986C55.4051 41.0986 55.5531 41.1227 55.5531 41.1502C55.5531 41.1778 55.4051 41.2053 55.2089 41.2053C55.0127 41.2053 54.8646 41.1812 54.8646 41.1502Z" fill="#FF3F58"/>
<path d="M53.5316 41.1502C53.5316 41.1227 53.6831 41.0986 53.8759 41.0986C54.0687 41.0986 54.2201 41.1227 54.2201 41.1502C54.2201 41.1778 54.0721 41.2053 53.8759 41.2053C53.6796 41.2053 53.5316 41.1812 53.5316 41.1502Z" fill="#FF3F58"/>
<path d="M52.1967 41.1502C52.1967 41.1227 52.3447 41.0986 52.5409 41.0986C52.7371 41.0986 52.8852 41.1227 52.8852 41.1502C52.8852 41.1778 52.7371 41.2053 52.5409 41.2053C52.3447 41.2053 52.1967 41.1812 52.1967 41.1502Z" fill="#FF3F58"/>
<path d="M51.3893 41.1509C51.3893 41.123 51.4207 41.0986 51.459 41.0986C51.4974 41.0986 51.5322 41.123 51.5322 41.1509C51.5322 41.1788 51.5009 41.2067 51.459 41.2067C51.4508 41.2076 51.4424 41.207 51.4344 41.2047C51.4264 41.2024 51.419 41.1985 51.4125 41.1934C51.406 41.1882 51.4006 41.1817 51.3966 41.1745C51.3927 41.1672 51.3901 41.1592 51.3893 41.1509Z" fill="#FF3F58"/>
<path d="M65.02 37.0846C65.1219 37.0945 65.2245 37.0945 65.3264 37.0846C65.4601 37.055 65.5859 36.9969 65.6952 36.9144C65.8045 36.8318 65.8948 36.7266 65.9598 36.6061C66.0458 36.4236 66.0875 36.2235 66.0815 36.0219C66.0756 35.8203 66.022 35.6229 65.9254 35.4459C65.903 35.3972 65.8695 35.3545 65.8277 35.321C65.7858 35.2875 65.7368 35.2643 65.6844 35.2531C65.5743 35.2394 65.4632 35.269 65.3746 35.3358C65.1909 35.514 65.0568 35.7371 64.9855 35.983C64.8892 36.25 64.8312 36.5293 64.8134 36.8126H64.6998C64.6998 35.9279 64.6826 35.1567 64.6826 34.6059C64.6826 34.3477 64.6826 34.1309 64.6826 33.9587C64.6732 33.881 64.6732 33.8024 64.6826 33.7246C64.6984 33.8017 64.7065 33.8801 64.7067 33.9587C64.7067 34.1309 64.7067 34.3477 64.7342 34.6059C64.7549 35.1567 64.7755 35.9279 64.7928 36.8126H64.6792C64.6976 36.5187 64.7579 36.2289 64.8582 35.952C64.9055 35.8225 64.9607 35.6961 65.0234 35.5733C65.0858 35.4485 65.1751 35.3391 65.285 35.2531C65.3414 35.2103 65.4058 35.1791 65.4743 35.1613C65.5429 35.1436 65.6143 35.1397 65.6844 35.1499C65.751 35.166 65.8133 35.1965 65.8668 35.2393C65.9204 35.2822 65.9639 35.3362 65.9942 35.3977C66.0961 35.5915 66.1494 35.8071 66.1494 36.026C66.1494 36.2449 66.0961 36.4605 65.9942 36.6542C65.9231 36.7809 65.8242 36.8897 65.7049 36.9726C65.5857 37.0555 65.4492 37.1102 65.3057 37.1328C65.2282 37.1455 65.1491 37.1455 65.0716 37.1328C65.0518 37.1197 65.0344 37.1034 65.02 37.0846Z" fill="#FF3F58"/>
<path d="M31.179 94.2172C31.179 94.2172 31.2272 94.2172 31.3201 94.2585C31.4131 94.2998 31.5508 94.3308 31.7264 94.4031C32.2405 94.6059 32.7321 94.8621 33.1929 95.1673C33.927 95.6503 34.5781 96.249 35.1207 96.9402C35.849 97.8539 36.343 98.9317 36.5597 100.08C36.8057 101.479 36.6195 102.92 36.0261 104.211C35.6995 104.93 35.2445 105.583 34.6835 106.139C34.3899 106.429 34.0681 106.69 33.723 106.917C33.5406 107.02 33.3788 107.13 33.1722 107.227C32.9657 107.323 32.7935 107.416 32.5904 107.488C30.9862 108.125 29.1479 108.153 27.3027 107.977C26.3801 107.888 25.4506 107.753 24.5039 107.605C23.5424 107.468 22.5945 107.248 21.6707 106.948C20.7365 106.651 19.873 106.166 19.1335 105.523C18.7791 105.198 18.4668 104.83 18.204 104.428C17.9548 104.025 17.7549 103.594 17.6084 103.144C17.3311 102.267 17.2385 101.342 17.3365 100.428C17.4334 99.5548 17.6877 98.7069 18.087 97.9248C18.8732 96.4957 20.0603 95.3278 21.502 94.5649C22.7441 93.8942 24.101 93.4622 25.5022 93.2911C26.6544 93.1545 27.8183 93.1464 28.9723 93.267C29.8414 93.3593 30.7046 93.5006 31.5577 93.6905C32.2462 93.8488 32.797 93.9934 33.1619 94.0932L33.575 94.2137L33.7161 94.2619L33.5716 94.2275L33.155 94.1208C32.7901 94.0278 32.2496 93.8901 31.5473 93.7421C30.6937 93.5615 29.8305 93.4293 28.962 93.3462C27.8166 93.2308 26.6618 93.2447 25.5194 93.3875C24.1332 93.5647 22.792 93.9978 21.5639 94.6647C20.1462 95.421 18.9798 96.5743 18.2075 97.9833C17.8175 98.754 17.5713 99.5892 17.4811 100.448C17.3869 101.344 17.4783 102.25 17.7496 103.109C17.8905 103.549 18.0847 103.97 18.3279 104.362C18.5823 104.755 18.8854 105.113 19.2299 105.43C19.9567 106.059 20.8033 106.534 21.7189 106.827C22.6372 107.124 23.5794 107.342 24.5349 107.478C25.4747 107.626 26.4076 107.76 27.3233 107.85C29.1479 108.025 30.9759 108.001 32.5526 107.375C34.0561 106.794 35.2697 105.643 35.9297 104.173C36.5176 102.903 36.7073 101.484 36.4736 100.104C36.2608 98.9728 35.7777 97.9099 35.0656 97.0056C34.5324 96.3181 33.8933 95.7196 33.1722 95.2327C32.7153 94.9253 32.23 94.6625 31.7229 94.4478C31.5473 94.3755 31.4131 94.3308 31.3201 94.2929L31.179 94.2172Z" fill="#263238"/>
<path d="M21.9881 103.113C21.897 103.136 21.8033 103.148 21.7093 103.147L20.9416 103.185H20.6868C20.5897 103.198 20.4913 103.198 20.3942 103.185C20.3328 103.166 20.2811 103.124 20.2496 103.068C20.2236 103.017 20.2084 102.96 20.2049 102.903L20.1842 102.589C20.1601 102.156 20.1326 101.688 20.105 101.212C20.0775 100.737 20.0465 100.252 20.0431 99.8148C20.0373 99.6003 20.0871 99.3881 20.1876 99.1986C20.2872 99.0418 20.4344 98.9212 20.6076 98.8543C20.8561 98.7678 21.1208 98.7384 21.3822 98.7683C21.4773 98.7707 21.5714 98.7881 21.6611 98.8199C21.5671 98.8281 21.4727 98.8281 21.3788 98.8199C21.1287 98.8091 20.879 98.8502 20.6455 98.9404C20.4981 99.0088 20.3772 99.1237 20.3012 99.2674C20.2151 99.4403 20.1737 99.6321 20.1808 99.8251C20.1808 100.245 20.2324 100.724 20.2531 101.202C20.2737 101.681 20.3012 102.163 20.3253 102.579C20.346 102.782 20.3012 103.037 20.4424 103.071C20.528 103.084 20.615 103.084 20.7006 103.071H21.7334C21.8197 103.074 21.9053 103.088 21.9881 103.113Z" fill="#263238"/>
<path d="M21.6019 100.858C21.3702 100.928 21.1276 100.956 20.8859 100.94C20.6447 100.967 20.4008 100.948 20.1664 100.885C20.3977 100.813 20.6407 100.785 20.8824 100.803C21.1236 100.776 21.3676 100.795 21.6019 100.858Z" fill="#263238"/>
<path d="M25.1849 100.218C24.8235 100.268 24.4583 100.287 24.0936 100.273C23.7315 100.301 23.3678 100.301 23.0057 100.273C23.3561 100.162 23.7229 100.112 24.0901 100.125C24.4577 100.096 24.8275 100.127 25.1849 100.218Z" fill="#263238"/>
<path d="M25.3992 101.863C25.0449 101.944 24.6803 101.97 24.3182 101.939C23.9568 101.953 23.5955 101.91 23.2476 101.811C23.6048 101.777 23.9644 101.777 24.3216 101.811C24.6816 101.796 25.0423 101.813 25.3992 101.863Z" fill="#263238"/>
<path d="M31.1842 102.851C31.1842 102.851 31.1842 102.703 31.1842 102.431C31.1676 102.047 31.0981 101.667 30.9776 101.302C30.9225 101.046 30.7816 100.816 30.5783 100.651C30.5201 100.618 30.4537 100.603 30.3871 100.608C30.3205 100.612 30.2565 100.635 30.203 100.675C30.0816 100.766 29.9836 100.884 29.9173 101.02C29.6419 101.697 29.5242 102.428 29.5731 103.157H29.4388C29.4781 102.63 29.4712 102.1 29.4181 101.574C29.3992 101.36 29.3693 101.148 29.3286 100.937C29.2946 100.743 29.192 100.567 29.0395 100.441C28.9662 100.389 28.8783 100.36 28.7882 100.36C28.698 100.36 28.6101 100.389 28.5368 100.441C28.3823 100.543 28.2697 100.697 28.2201 100.875C28.1708 101.054 28.1385 101.237 28.1237 101.422C28.1031 101.605 28.0859 101.784 28.079 101.959C28.06 102.286 28.06 102.614 28.079 102.941H27.9723C27.9447 102.166 27.9206 101.533 27.9034 101.068C27.9034 100.861 27.9034 100.693 27.9034 100.558C27.896 100.499 27.896 100.439 27.9034 100.379C27.9171 100.438 27.9252 100.498 27.9275 100.558L27.9688 101.068C27.9964 101.529 28.0377 102.163 28.0859 102.934H27.9792C27.9616 102.603 27.9616 102.272 27.9792 101.942C27.9792 101.767 27.9998 101.598 28.0205 101.398C28.0345 101.205 28.0679 101.014 28.1203 100.827C28.1768 100.619 28.3064 100.438 28.4852 100.317C28.5882 100.252 28.7078 100.219 28.8295 100.221C28.9533 100.221 29.0739 100.261 29.1737 100.335C29.3538 100.479 29.476 100.683 29.518 100.909C29.5619 101.126 29.594 101.344 29.6144 101.564C29.6606 102.098 29.6606 102.636 29.6144 103.171H29.4801C29.4346 102.423 29.5643 101.675 29.8588 100.985C29.9371 100.826 30.0558 100.691 30.203 100.593C30.2736 100.542 30.3572 100.513 30.4439 100.509C30.5306 100.504 30.6167 100.525 30.6919 100.569C30.9143 100.749 31.0666 101.001 31.1222 101.281C31.2359 101.656 31.2939 102.046 31.2943 102.438C31.2943 102.576 31.2943 102.682 31.2771 102.751C31.2517 102.789 31.2203 102.823 31.1842 102.851Z" fill="#263238"/>
<path d="M34.202 102.634C34.202 102.634 34.1538 102.693 34.0368 102.751C33.8702 102.832 33.6883 102.877 33.5032 102.882C33.2235 102.891 32.9477 102.815 32.7114 102.665C32.4217 102.473 32.2153 102.179 32.1336 101.841C32.0519 101.503 32.1009 101.147 32.2708 100.844C32.4133 100.603 32.6242 100.41 32.8766 100.29C33.0433 100.21 33.2253 100.166 33.4102 100.162C33.478 100.157 33.5461 100.167 33.6099 100.19C33.3711 100.21 33.1378 100.273 32.9214 100.376C32.6965 100.499 32.5105 100.683 32.3844 100.906C32.2401 101.184 32.201 101.504 32.2744 101.809C32.3478 102.113 32.5286 102.38 32.7837 102.562C32.9986 102.704 33.2493 102.781 33.5066 102.786C33.7459 102.78 33.9819 102.728 34.202 102.634Z" fill="#263238"/>
<path d="M35.0122 98.7338C34.4933 98.7653 33.9796 98.8542 33.4803 98.9989L33.2496 99.0746L33.4217 98.899C33.7533 98.5964 34.0406 98.2488 34.2755 97.8663C34.459 97.5465 34.5225 97.1718 34.4545 96.8094C34.4166 96.6476 34.3202 96.5203 34.1894 96.5168C34.0533 96.5192 33.9198 96.5546 33.8004 96.6201C33.6179 96.714 33.4562 96.844 33.3253 97.0022C33.2324 97.1158 33.1945 97.1915 33.1842 97.1847C33.1983 97.106 33.2327 97.0324 33.284 96.9712C33.4027 96.7897 33.5648 96.6406 33.7557 96.5375C33.8882 96.4547 34.0402 96.4084 34.1963 96.4032C34.2443 96.4047 34.2914 96.4161 34.3347 96.4369C34.378 96.4576 34.4164 96.4872 34.4476 96.5237C34.5093 96.5962 34.553 96.6823 34.575 96.775C34.6601 97.1694 34.5963 97.5814 34.396 97.9317C34.1563 98.3307 33.8554 98.6897 33.5044 98.9954L33.4458 98.8922C33.8125 98.782 34.1923 98.7218 34.575 98.7132C34.7208 98.6941 34.8688 98.7011 35.0122 98.7338Z" fill="#263238"/>
<path d="M58.0697 94.6613L65.4057 93.2464L79.4789 96.4755L86.6119 97.9627L86.7151 107.709L70.8037 110.638L60.0663 107.457L56.0076 101.484L58.0697 94.6613Z" fill="#FFBE9D"/>
<path d="M52.8563 95.6321L59.7793 94.0003C59.7793 94.0003 64.6746 109.148 76.7545 108.483C86.6002 107.95 86.6105 97.9627 86.6105 97.9627L93.8089 99.233C93.8089 99.233 96.828 117.509 93.5197 130.33C90.7657 141.001 88.3215 155.625 88.3215 155.625H40.501L52.8563 95.6321Z" fill="#FF3F58"/>
<path d="M123.008 142.461C123.008 142.461 103.286 107.908 99.7365 103.474C95.8499 98.6202 92.7482 99.1813 92.7482 99.1813L90.662 122.456L107.431 146.248L111.427 147.69L123.008 142.461Z" fill="#FF3F58"/>
<path d="M53.6843 95.4393C53.6843 95.4393 42.4753 96.3344 38.4544 114.718C36.6367 123.024 34.3234 132.76 33.6762 139.301C33.1942 144.048 36.1238 148.985 40.8573 149.591L46.7992 150.692C48.3689 150.984 49.9907 150.662 51.3305 149.794C52.6702 148.925 53.626 147.576 54.001 146.024L56.008 137.714L50.6617 135.917L51.8976 111.161L53.6843 95.4393Z" fill="#FF3F58"/>
<path d="M94.7281 112.081C94.7543 112.163 94.7716 112.249 94.7797 112.335C94.8107 112.521 94.8451 112.769 94.8933 113.075C94.9174 113.237 94.9415 113.42 94.9725 113.613C95.0035 113.805 95.0138 114.022 95.0345 114.253C95.0827 114.711 95.1377 115.234 95.1618 115.816C95.2449 117.176 95.2541 118.54 95.1894 119.902C95.1089 121.569 94.9435 123.23 94.6936 124.88C94.4355 126.636 94.1119 128.295 93.7848 129.796C93.4578 131.297 93.1307 132.643 92.8519 133.772C92.573 134.901 92.3286 135.807 92.1634 136.433C92.0807 136.733 92.0153 136.974 91.9637 137.153C91.9429 137.237 91.9164 137.32 91.8845 137.401C91.8916 137.314 91.9065 137.229 91.9293 137.146C91.9706 136.96 92.0291 136.719 92.098 136.416L92.7314 133.727C92.9965 132.595 93.3132 131.249 93.6265 129.748C93.9397 128.247 94.2633 126.591 94.5215 124.839C94.7797 123.086 94.9553 121.396 95.0276 119.878C95.0999 118.36 95.1068 116.966 95.0276 115.809C95.0276 115.231 94.9656 114.707 94.9277 114.246C94.9105 114.019 94.8933 113.805 94.8795 113.606C94.8658 113.406 94.8348 113.234 94.8176 113.069C94.7832 112.762 94.7591 112.514 94.7384 112.328C94.7294 112.246 94.726 112.163 94.7281 112.081Z" fill="#263238"/>
<path d="M56.5334 138.602C56.5097 138.553 56.4901 138.503 56.4749 138.451C56.4405 138.337 56.3923 138.192 56.3338 138.006L56.1134 137.294C56.0514 136.97 55.9147 136.664 55.7141 136.402C55.4193 136.119 55.0671 135.903 54.6813 135.769C54.2278 135.597 53.7601 135.466 53.2837 135.376C52.1478 135.166 50.9962 135.051 49.8411 135.032H49.7482V134.943L50.7603 128.343C51.4109 124.188 52.003 120.425 52.4334 117.671C52.6571 116.322 52.8361 115.224 52.9635 114.446C53.0255 114.077 53.0771 113.785 53.115 113.568C53.115 113.478 53.146 113.403 53.1597 113.341C53.1622 113.314 53.1692 113.289 53.1804 113.265C53.1857 113.291 53.1857 113.318 53.1804 113.344C53.1804 113.406 53.1804 113.482 53.1529 113.575C53.1253 113.792 53.084 114.084 53.0358 114.456C52.9222 115.237 52.7604 116.339 52.5642 117.692C52.1442 120.446 51.5727 124.202 50.9393 128.364C50.5675 130.739 50.2198 132.987 49.9065 134.96L49.8274 134.867C50.9965 134.897 52.1609 135.027 53.3078 135.256C53.7909 135.352 54.2644 135.492 54.7227 135.672C55.1242 135.82 55.4877 136.055 55.7864 136.361C55.9094 136.499 56.001 136.662 56.0549 136.839L56.1823 137.297C56.2615 137.576 56.3269 137.817 56.382 138.017C56.437 138.216 56.4715 138.361 56.499 138.468C56.5146 138.511 56.5262 138.556 56.5334 138.602Z" fill="#263238"/>
<path d="M41.0913 141.411C41.1023 141.254 41.1324 141.099 41.1808 140.95C41.2891 140.535 41.4342 140.131 41.6146 139.741C42.2016 138.441 43.1168 137.316 44.2702 136.477C45.4236 135.637 46.7756 135.112 48.1933 134.953C48.6181 134.901 49.0467 134.887 49.4739 134.912C49.6317 134.913 49.7887 134.933 49.9421 134.97C49.3668 134.973 48.7921 135.009 48.2208 135.077C46.8354 135.268 45.5186 135.798 44.3876 136.621C43.2567 137.444 42.3467 138.534 41.7385 139.793C41.4941 140.321 41.278 140.861 41.0913 141.411Z" fill="#263238"/>
<path d="M43.683 132.261C43.7706 132.239 43.8613 132.23 43.9515 132.237C44.1987 132.232 44.4459 132.244 44.6917 132.271C45.5045 132.353 46.3012 132.552 47.0567 132.863C47.812 133.176 48.5191 133.594 49.1566 134.106C49.3499 134.259 49.5328 134.425 49.704 134.602C49.8245 134.729 49.8899 134.801 49.8796 134.812C49.8692 134.822 49.5766 134.571 49.0809 134.206C47.781 133.253 46.2685 132.632 44.6744 132.395C44.0651 132.306 43.683 132.292 43.683 132.261Z" fill="#263238"/>
<path d="M55.2843 108.483C55.2617 108.32 55.2537 108.155 55.2602 107.991C55.2602 107.674 55.2395 107.22 55.1982 106.659C55.0949 105.195 54.8434 103.745 54.4477 102.331C54.0464 100.92 53.5056 99.5524 52.8332 98.2484C52.5715 97.7493 52.3512 97.3499 52.1894 97.0814C52.0987 96.944 52.0204 96.7989 51.9553 96.6476C52.0652 96.77 52.1632 96.9026 52.2479 97.0435C52.4304 97.3052 52.6679 97.6942 52.9365 98.1899C54.3692 100.79 55.1821 103.686 55.3118 106.652C55.3359 107.216 55.3325 107.684 55.3118 107.991C55.3189 108.155 55.3097 108.32 55.2843 108.483Z" fill="#263238"/>
<g opacity="0.3">
<path opacity="0.3" d="M94.2144 127.5C97.0717 122.656 97.1336 116.363 94.6378 111.32C95.4405 116.693 95.2679 122.167 94.1283 127.479" fill="black"/>
</g>
<g opacity="0.3">
<path opacity="0.3" d="M68.7742 132.977C66.6054 133.614 63.6104 133.769 61.4863 132.977C63.1422 135.328 66.3334 136.178 69.1013 135.414C71.8691 134.65 74.4234 131.879 74.6369 129.011C73.2977 130.822 70.9465 132.35 68.7742 132.977Z" fill="black"/>
</g>
<path d="M76.7562 125.155C76.7461 125.221 76.7288 125.286 76.7045 125.348C76.6632 125.472 76.615 125.661 76.5186 125.889C76.2677 126.547 75.9553 127.179 75.5857 127.779C75.0407 128.672 74.3823 129.491 73.6269 130.216C71.7735 132.02 69.381 133.169 66.8141 133.486C65.7765 133.621 64.7258 133.621 63.6882 133.486C62.9874 133.399 62.2961 133.248 61.6227 133.035C61.3817 132.963 61.2062 132.884 61.0822 132.839C61.0193 132.818 60.9583 132.791 60.8998 132.76C61.1498 132.816 61.3969 132.885 61.6399 132.967C64.5547 133.777 67.6631 133.519 70.4047 132.24C73.1188 130.906 75.263 128.641 76.4463 125.858C76.646 125.41 76.739 125.149 76.7562 125.155Z" fill="#263238"/>
<path d="M52.5739 149.257C52.5739 149.257 52.5498 149.295 52.4878 149.35C52.4011 149.436 52.3079 149.515 52.209 149.587C51.8489 149.856 51.4494 150.067 51.0247 150.214C50.3933 150.424 49.7345 150.54 49.0694 150.558C48.2651 150.584 47.46 150.555 46.6596 150.472C44.9383 150.324 43.4098 150.073 42.3048 149.876C41.7505 149.777 41.303 149.69 40.9966 149.625C40.8334 149.603 40.673 149.564 40.5181 149.508C40.6821 149.511 40.8456 149.527 41.0069 149.556L42.3254 149.749C43.4339 149.918 44.9693 150.145 46.6768 150.293C47.4772 150.376 48.282 150.409 49.0866 150.393C49.7382 150.379 50.3847 150.275 51.0075 150.083C51.5681 149.888 52.0961 149.609 52.5739 149.257Z" fill="#263238"/>
<path d="M91.4564 58.6797L92.8713 57.3027C94.7544 58.122 95.6253 60.3081 95.9455 62.3392C96.2656 64.3703 96.2174 66.5046 97.0815 68.3705C97.7425 69.8061 98.9439 71.1245 98.8028 72.7116C98.6685 74.2091 97.3122 75.4209 97.3053 76.9253C97.3053 78.3746 98.5102 79.4865 99.2125 80.7534C100.634 83.3181 101.557 93.811 100.813 96.6511C94.5581 96.1106 83.48 95.4427 77.2214 94.0037C78.8704 83.2217 85.814 68.0056 91.4564 58.6797Z" fill="#263238"/>
<path d="M94.2555 68.2913C94.6893 60.9621 89.3671 54.256 81.9484 53.3713C74.0753 52.4349 67.111 58.0738 66.4569 65.7438L64.6117 96.7062C64.578 97.3046 64.7452 97.8971 65.0867 98.3896C66.9044 101.047 70.1955 103.127 73.1389 103.536C75.9859 103.932 78.8742 103.192 81.2977 101.842C81.6997 101.615 82.035 101.286 82.27 100.889C82.5051 100.491 82.6316 100.039 82.6369 99.5772L82.7643 92.6474C82.7637 92.6414 82.7645 92.6353 82.7666 92.6297C82.7686 92.624 82.7719 92.6188 82.7762 92.6146C82.7805 92.6103 82.7856 92.607 82.7913 92.605C82.7969 92.6029 82.803 92.6021 82.809 92.6026C83.4575 92.6515 84.1093 92.6331 84.754 92.5476C86.5855 92.1 91.257 90.303 92.8268 83.4454C93.3501 81.1734 93.8734 74.7186 94.2555 68.2913Z" fill="#FFBE9D"/>
<path d="M84.0713 78.4159C84.0713 78.347 84.839 78.2713 86.0817 78.2024C86.395 78.2024 86.6945 78.1508 86.7703 77.9442C86.8164 77.6284 86.7635 77.3061 86.6188 77.0216L85.8476 74.6118C84.7805 71.1968 84.03 68.398 84.1677 68.3602C84.3054 68.3223 85.2865 71.0522 86.3537 74.4673C86.6085 75.3107 86.8529 76.1128 87.087 76.877C87.1834 77.2213 87.3589 77.6413 87.1696 78.0923C87.1169 78.1974 87.0408 78.289 86.947 78.36C86.8533 78.431 86.7446 78.4796 86.6291 78.5019C86.4535 78.5369 86.2743 78.5496 86.0955 78.5398C84.8424 78.5329 84.0747 78.4847 84.0713 78.4159Z" fill="#263238"/>
<path d="M92.2315 70.8835C92.0973 71.0316 91.2848 70.35 90.1212 70.3155C88.9577 70.2811 88.0901 70.8904 87.9662 70.7321C87.9042 70.6598 88.0454 70.3878 88.4241 70.1055C88.9244 69.746 89.5296 69.562 90.1453 69.5823C90.7604 69.6035 91.3507 69.8301 91.8219 70.226C92.1833 70.5358 92.3176 70.8181 92.2315 70.8835Z" fill="#263238"/>
<path d="M80.4095 71.1796C80.2512 71.3276 79.4043 70.56 78.134 70.4498C76.8637 70.3396 75.8757 70.9214 75.7483 70.7493C75.6864 70.6701 75.8585 70.405 76.2888 70.1228C76.8654 69.7811 77.5357 69.6316 78.2029 69.6959C78.8706 69.7551 79.5012 70.0293 79.9999 70.4773C80.3751 70.8113 80.4853 71.1142 80.4095 71.1796Z" fill="#263238"/>
<path d="M82.7618 92.5992C82.7618 92.5992 78.0179 92.6508 72.3446 88.7538C72.3446 88.7538 73.8111 95.0124 82.7239 94.8162L82.7618 92.5992Z" fill="#EB996E"/>
<path d="M83.3647 81.2732C83.1486 80.9684 82.8595 80.7227 82.524 80.5585C82.1884 80.3943 81.817 80.3169 81.4438 80.3334C81.1742 80.3373 80.9082 80.3954 80.6616 80.5043C80.415 80.6131 80.1928 80.7704 80.0082 80.9668C79.8319 81.1549 79.7189 81.3935 79.685 81.649C79.651 81.9046 79.6978 82.1644 79.8189 82.392C80.1184 82.8705 80.8 83.0255 81.3956 82.9015C81.9853 82.7401 82.5375 82.4641 83.0204 82.0891C83.1638 81.9973 83.2897 81.8808 83.3922 81.7448C83.4407 81.6814 83.4691 81.6049 83.474 81.5252C83.4789 81.4456 83.4601 81.3662 83.4198 81.2973" fill="#EB996E"/>
<path d="M80.423 78.9908C80.6227 78.9908 80.5435 80.299 81.6176 81.3042C82.6916 82.3094 84.1134 82.2612 84.1134 82.4437C84.1134 82.5297 83.7691 82.6778 83.1839 82.6502C82.4081 82.6071 81.671 82.297 81.0977 81.7724C80.5518 81.2731 80.223 80.5798 80.182 79.8411C80.1648 79.2937 80.3335 78.9908 80.423 78.9908Z" fill="#263238"/>
<path d="M80.6121 66.3807C80.4675 66.6974 79.2592 66.453 77.8168 66.5115C76.3743 66.5701 75.1867 66.8558 75.0145 66.5632C74.9422 66.4151 75.1626 66.126 75.6548 65.8437C76.3095 65.5027 77.0324 65.3133 77.7701 65.2894C78.5078 65.2656 79.2415 65.408 79.9167 65.706C80.4159 65.9538 80.6603 66.2292 80.6121 66.3807Z" fill="#263238"/>
<path d="M92.4827 66.6389C92.2349 66.9143 91.2537 66.6389 90.0729 66.6389C88.8921 66.6389 87.9007 66.8351 87.6631 66.5494C87.5599 66.4117 87.7148 66.1363 88.1485 65.8609C88.7491 65.5462 89.4195 65.3887 90.0973 65.4031C90.7752 65.4176 91.4383 65.6035 92.0249 65.9435C92.4517 66.2223 92.5929 66.5046 92.4827 66.6389Z" fill="#263238"/>
<path d="M83.023 51.8222C82.3827 50.7343 81.195 50.2386 79.8662 50.0389C74.4407 49.2161 68.3887 52.4831 65.349 57.048C62.3092 61.6128 62.1474 68.4256 64.3713 73.4379L67.7553 71.3242C74.5475 68.522 79.3429 61.9777 83.7115 55.2165C84.3209 54.2974 83.591 52.7689 83.023 51.8222Z" fill="#263238"/>
<path d="M91.3783 54.8068C89.1096 52.2249 87.4607 49.643 82.7512 51.4469C82.0627 52.7654 83.4398 54.4764 84.624 55.4747C86.3453 56.9412 87.8221 57.9292 88.9444 58.9792C91.2096 61.0964 93.7846 68.219 94.0084 72.1057C94.0084 72.3501 94.4387 68.7698 94.6969 68.732C95.0136 68.6838 96.2908 67.1209 96.1152 64.9865C95.5093 57.6917 93.6469 57.3853 91.3783 54.8068Z" fill="#263238"/>
<path d="M79.878 50.0389C80.2318 49.9699 80.5978 50.0009 80.9349 50.1284C81.7683 50.384 82.5112 50.8725 83.0762 51.5364C83.2375 51.7231 83.3804 51.9248 83.503 52.1389C83.61 52.3457 83.6931 52.564 83.7509 52.7895C83.8738 53.1532 83.967 53.5262 84.0297 53.9049C84.1227 54.5693 83.9643 54.9721 83.9299 54.9618C83.8955 54.9514 83.9471 54.5555 83.8025 53.9462C83.707 53.5857 83.592 53.2306 83.4583 52.8825C83.3971 52.6789 83.3164 52.4818 83.2173 52.2938C83.1009 52.0965 82.9672 51.9099 82.818 51.7361C82.285 51.1186 81.6106 50.6391 80.8523 50.3384C80.267 50.1284 79.8711 50.094 79.878 50.0389Z" fill="#455A64"/>
<path d="M91.1563 73.1384C91.1568 73.4025 91.056 73.6567 90.8748 73.8488C90.6936 74.0409 90.4457 74.1562 90.1821 74.1712C90.0512 74.1835 89.9191 74.1695 89.7937 74.13C89.6682 74.0906 89.5519 74.0265 89.4516 73.9415C89.3512 73.8566 89.2688 73.7524 89.2092 73.6352C89.1497 73.518 89.1141 73.3901 89.1046 73.2589C89.0979 72.9907 89.1958 72.7305 89.3777 72.5332C89.5595 72.3359 89.811 72.2172 90.0788 72.2021C90.2117 72.1893 90.3459 72.2038 90.473 72.2445C90.6002 72.2852 90.7178 72.3514 90.8185 72.439C90.9193 72.5266 91.0013 72.6337 91.0593 72.754C91.1174 72.8742 91.1504 73.005 91.1563 73.1384Z" fill="#263238"/>
<path d="M79.8163 73.1935C79.823 73.4617 79.7251 73.722 79.5432 73.9192C79.3614 74.1165 79.1099 74.2353 78.8421 74.2504C78.7114 74.2631 78.5794 74.2496 78.454 74.2105C78.3285 74.1715 78.2122 74.1077 78.1118 74.0231C78.0114 73.9384 77.9289 73.8344 77.8693 73.7174C77.8097 73.6004 77.7741 73.4726 77.7646 73.3415C77.757 73.0728 77.8545 72.8116 78.0364 72.6136C78.2184 72.4156 78.4703 72.2964 78.7388 72.2812C78.8698 72.2685 79.0021 72.2822 79.1277 72.3214C79.2533 72.3607 79.3698 72.4247 79.4703 72.5098C79.5707 72.5948 79.6531 72.6991 79.7126 72.8166C79.772 72.934 79.8073 73.0622 79.8163 73.1935Z" fill="#263238"/>
<path d="M48.615 81.8102C49.2553 80.7568 49.992 79.7653 51.1624 79.3281C52.3329 78.8909 53.6617 78.6396 54.5809 77.7859C56.0233 76.4605 55.9579 74.2573 55.8271 72.3363C55.6963 70.4154 55.6619 68.2053 57.1353 66.9143C58.3677 65.8368 60.3265 65.7404 61.3937 64.5045C62.1063 63.6817 62.2475 62.5457 62.4953 61.4957C63.1838 58.6832 64.7227 53.7706 73.0123 50.9443L65.6797 78.8083C66.227 78.9632 67.5352 80.2094 67.6075 81.0529C67.6729 81.8412 67.3321 82.6399 67.3252 83.4317C67.3252 84.399 68.3786 84.9774 69.0465 85.6934C69.8934 86.6057 70.155 87.9208 70.0242 89.136C69.7527 90.7968 69.3085 92.4248 68.6988 93.9934C61.8963 93.3049 51.968 93.0846 46.7835 88.747C45.8437 87.9621 47.1897 84.1546 48.615 81.8102Z" fill="#263238"/>
<path d="M67.7677 71.3242C67.6403 71.2554 62.6314 69.2587 62.3113 74.543C61.9911 79.8273 67.3512 79.0424 67.3684 78.8944C67.3856 78.7464 67.7677 71.3242 67.7677 71.3242Z" fill="#FFBE9D"/>
<path d="M65.8814 76.8013C65.8573 76.7807 65.785 76.8598 65.6232 76.9184C65.3993 77.0003 65.1523 76.9916 64.9347 76.8943C64.3908 76.6533 63.9742 75.741 64.0052 74.7909C64.0227 74.3381 64.1402 73.8949 64.3494 73.493C64.4094 73.3316 64.5074 73.187 64.635 73.0714C64.7626 72.9557 64.9162 72.8725 65.0827 72.8286C65.1901 72.8071 65.3015 72.824 65.3978 72.8762C65.494 72.9284 65.5689 73.0126 65.6094 73.1143C65.6714 73.2658 65.6301 73.3691 65.6576 73.3794C65.6852 73.3897 65.7781 73.2968 65.7471 73.0765C65.7273 72.9435 65.6615 72.8217 65.5612 72.7322C65.4232 72.6133 65.2437 72.5539 65.0621 72.567C64.8431 72.5961 64.6353 72.681 64.4586 72.8137C64.282 72.9463 64.1424 73.1222 64.0534 73.3243C63.8018 73.7683 63.6624 74.267 63.6472 74.7771C63.6162 75.8408 64.0981 76.8667 64.8486 77.1318C64.9873 77.1822 65.1356 77.2004 65.2824 77.1849C65.4291 77.1694 65.5704 77.1206 65.6955 77.0423C65.8642 76.9252 65.8986 76.8116 65.8814 76.8013Z" fill="#EB996E"/>
<path d="M86.5126 72.7047C86.5405 72.3075 86.5969 71.9129 86.6813 71.5239C86.8405 70.8728 87.1338 70.2622 87.5423 69.7309C87.9509 69.1996 88.4658 68.7594 89.0541 68.4383C89.6425 68.1173 90.2913 67.9224 90.9592 67.8663C91.627 67.8102 92.2993 67.894 92.9329 68.1123C93.3693 68.2595 93.7804 68.4731 94.1516 68.7457C94.5481 69.0198 94.897 69.357 95.1844 69.7441C95.8012 70.5518 96.1428 71.536 96.1589 72.5522C96.175 73.5684 95.8648 74.563 95.2739 75.3898C95.0009 75.7851 94.6662 76.1338 94.2824 76.4226C93.9207 76.7077 93.5164 76.9342 93.0844 77.0939C92.2857 77.4016 91.4191 77.4896 90.5748 77.3487C89.8385 77.2272 89.1414 76.9335 88.5402 76.4915C87.66 75.8511 87.021 74.9332 86.726 73.8855C86.631 73.498 86.562 73.1047 86.5195 72.7081C86.518 72.7345 86.518 72.7609 86.5195 72.7873C86.5195 72.8527 86.5195 72.9284 86.5195 73.0214C86.5224 73.1472 86.5351 73.2727 86.5573 73.3966C86.5762 73.5676 86.6084 73.7368 86.6537 73.9027C86.93 74.9806 87.568 75.9309 88.461 76.5947C89.1224 77.0896 89.8981 77.4091 90.7161 77.5235C91.5342 77.6378 92.3678 77.5433 93.1395 77.2488C94.0555 76.9026 94.8477 76.2914 95.415 75.4931C96.0288 74.6365 96.3512 73.6053 96.3344 72.5516C96.3177 71.4979 95.9628 70.4775 95.3221 69.6408C95.0238 69.2418 94.6635 68.8931 94.2549 68.608C93.8733 68.334 93.4518 68.1204 93.0052 67.9746C92.2247 67.7049 91.3887 67.637 90.5749 67.7772C89.7611 67.9175 88.9961 68.2613 88.3509 68.7767C87.4775 69.4695 86.8696 70.4421 86.6296 71.5308C86.5902 71.6984 86.5626 71.8687 86.547 72.0402C86.5301 72.1658 86.5221 72.2923 86.5229 72.4189C86.5229 72.5119 86.5229 72.5876 86.5229 72.6496C86.5187 72.6678 86.5152 72.6862 86.5126 72.7047Z" fill="#455A64"/>
<path d="M73.2097 72.9181C73.2373 72.5212 73.2925 72.1266 73.3749 71.7373C73.6339 70.6813 74.2401 69.743 75.0962 69.0728C75.6836 68.6122 76.3712 68.2961 77.1032 68.1502C77.9428 67.9843 78.8114 68.0449 79.6197 68.3258C80.0555 68.4744 80.4664 68.6879 80.8384 68.9592C81.2342 69.2342 81.5829 69.5713 81.8712 69.9575C82.4872 70.7648 82.8286 71.7481 82.8453 72.7634C82.8621 73.7788 82.5532 74.7728 81.9641 75.5999C81.6897 75.995 81.3538 76.3437 80.9692 76.6326C80.6076 76.9179 80.2033 77.1444 79.7712 77.3039C78.9725 77.6116 78.1059 77.6996 77.2616 77.5587C76.5264 77.4373 75.8304 77.1436 75.2305 76.7015C74.3496 76.0611 73.7094 75.1434 73.4128 74.0955C73.3179 73.7082 73.2501 73.3148 73.2097 72.9181C73.206 72.9444 73.206 72.971 73.2097 72.9973C73.2097 73.0593 73.2097 73.1385 73.2097 73.2314C73.2096 73.3573 73.2211 73.4829 73.2441 73.6066C73.2627 73.7779 73.2961 73.9472 73.344 74.1127C73.6174 75.1919 74.256 76.1431 75.1513 76.8048C75.7602 77.2621 76.4675 77.5709 77.2168 77.7067C78.0876 77.8568 78.9826 77.7712 79.8091 77.4589C80.7266 77.1152 81.5195 76.5035 82.0846 75.7032C82.6984 74.8465 83.0208 73.8154 83.004 72.7616C82.9873 71.7079 82.6324 70.6875 81.9917 69.8508C81.3995 69.0704 80.588 68.4843 79.661 68.1674C78.8248 67.8816 77.9272 67.8258 77.0619 68.0056C76.1404 68.195 75.293 68.6462 74.6213 69.305C73.9497 69.9639 73.4823 70.8024 73.2751 71.7201C73.2324 71.8871 73.2047 72.0577 73.1925 72.2296C73.1721 72.3548 73.164 72.4816 73.1684 72.6083V72.839C73.1762 72.868 73.1903 72.8951 73.2097 72.9181Z" fill="#455A64"/>
<path d="M82.7115 72.5567C82.7391 72.5739 82.8768 72.3501 83.1969 72.0919C83.6073 71.7516 84.1213 71.561 84.6544 71.5516C85.1875 71.5422 85.7079 71.7146 86.13 72.0403C86.4743 72.2847 86.6051 72.505 86.6292 72.4844C86.5436 72.2669 86.3979 72.0783 86.2092 71.9404C85.778 71.563 85.2216 71.3599 84.6487 71.3707C84.0758 71.3815 83.5275 71.6055 83.1109 71.999C82.9281 72.1437 82.7897 72.337 82.7115 72.5567Z" fill="#455A64"/>
<path d="M66.5555 70.9868C66.8724 71.0873 67.1989 71.1542 67.5298 71.1865C68.1391 71.2829 68.9825 71.3724 69.912 71.455L72.2977 71.6685C72.6247 71.7188 72.9549 71.7441 73.2857 71.7442C72.9689 71.6429 72.6424 71.5748 72.3115 71.5411C71.7056 71.4481 70.8622 71.3586 69.9292 71.276L67.547 71.0626C67.2192 71.0101 66.8875 70.9848 66.5555 70.9868Z" fill="#455A64"/>
<path d="M94.1945 75.6825C94.6241 75.186 94.9726 74.6249 95.2272 74.0197C95.4272 73.3932 95.5282 72.7393 95.5267 72.0816C95.6033 72.2668 95.6386 72.4665 95.63 72.6668C95.6423 73.149 95.5629 73.6292 95.3959 74.0817C95.2293 74.5343 94.9768 74.9505 94.6523 75.3072C94.401 75.5758 94.2082 75.6997 94.1945 75.6825Z" fill="white"/>
<path d="M95.0278 70.2433C95.0553 70.2019 95.2516 70.3018 95.372 70.5359C95.4925 70.77 95.4409 70.9834 95.3927 70.98C95.3445 70.9765 95.3032 70.8009 95.2102 70.6116C95.1173 70.4223 94.9968 70.2811 95.0278 70.2433Z" fill="white"/>
<path d="M82.0428 74.6394C82.0152 74.6394 82.1116 74.364 82.1908 73.9199C82.3938 72.7551 82.1701 71.5561 81.5608 70.5428C81.3302 70.1572 81.1442 69.9438 81.1649 69.9231C81.3677 70.0711 81.5387 70.2584 81.6675 70.4739C82.0132 70.9744 82.2508 71.5415 82.3652 72.139C82.4796 72.7364 82.4683 73.3512 82.3319 73.944C82.2834 74.1929 82.1851 74.4295 82.0428 74.6394Z" fill="white"/>
<path d="M63.7433 78.8221C63.7433 78.8221 63.671 78.9254 63.5677 79.1147C63.4196 79.3836 63.3415 79.6855 63.3405 79.9926C63.335 80.2152 63.3756 80.4365 63.4597 80.6427C63.5438 80.8488 63.6697 81.0354 63.8294 81.1906C64.022 81.382 64.2571 81.5251 64.5156 81.6083C64.774 81.6914 65.0485 81.7123 65.3166 81.6691C65.5829 81.6143 65.8328 81.4984 66.0467 81.3305C66.2605 81.1626 66.4325 80.9474 66.549 80.7017C66.6431 80.4999 66.695 80.281 66.7015 80.0584C66.708 79.8358 66.669 79.6143 66.5869 79.4073C66.4783 79.1209 66.3009 78.8655 66.0705 78.6637C65.9052 78.5226 65.7951 78.4641 65.802 78.4503C65.9157 78.4794 66.0215 78.5335 66.1118 78.6086C66.3744 78.7996 66.5793 79.0593 66.7039 79.3591C66.8037 79.581 66.8552 79.8216 66.8552 80.0648C66.8552 80.3081 66.8037 80.5487 66.7039 80.7706C66.5854 81.0472 66.4001 81.2901 66.1646 81.4775C65.9291 81.6649 65.6507 81.7908 65.3545 81.8441C65.0583 81.8973 64.7535 81.8762 64.4675 81.7825C64.1815 81.6889 63.9232 81.5257 63.7158 81.3076C63.5442 81.1355 63.411 80.9291 63.325 80.7018C63.239 80.4746 63.202 80.2317 63.2166 79.9891C63.2285 79.665 63.3298 79.3505 63.5092 79.0803C63.6297 78.8909 63.7433 78.8152 63.7433 78.8221Z" fill="#E0E0E0"/>
<path d="M92.822 82.8843C93.1133 83.0009 93.4345 83.0202 93.7377 82.9394C94.062 82.8486 94.3543 82.6685 94.5811 82.4196C94.8607 82.1177 95.0493 81.743 95.1251 81.3386C95.2039 80.934 95.1533 80.5148 94.9805 80.1406C94.8387 79.8338 94.6278 79.5639 94.3643 79.3523C94.1099 79.1663 93.8321 79.0146 93.538 78.9013C93.6256 78.8934 93.7138 78.9052 93.7962 78.9357C94.0291 79.0003 94.2483 79.1064 94.4434 79.249C94.7358 79.4638 94.972 79.7461 95.132 80.0717C95.3285 80.4743 95.389 80.9298 95.3041 81.3696C95.2198 81.8092 95.0093 82.2148 94.6982 82.5366C94.4456 82.7999 94.1212 82.9831 93.7653 83.0633C93.5267 83.1196 93.2771 83.1065 93.0458 83.0255C92.884 82.96 92.8151 82.8912 92.822 82.8843Z" fill="#E0E0E0"/>
<path d="M73.7267 151.24L78.832 152.751C78.832 152.751 81.648 153.959 83.0182 154.273C84.7188 154.662 85.8789 154.135 85.9409 153.188C86.0029 152.241 84.6809 152.121 84.6809 152.121C83.5573 151.693 82.4646 151.188 81.4105 150.61C80.645 150.078 80.0191 149.369 79.5859 148.544L81.4105 148.795C81.4105 148.795 85.2489 151.549 86.6948 152.383C88.1407 153.216 88.4574 151.753 88.5813 151.312C88.7053 150.871 84.3057 146.406 84.3057 146.406C84.3057 146.406 88.5194 149.112 89.2733 149.787C90.0272 150.462 91.1632 150.682 91.4145 150.245C91.6659 149.808 92.3578 149.804 91.4145 147.938C90.4713 146.072 82.9218 141.053 82.9218 141.053L84.9873 140.612L87.2525 141.621C87.4102 142.398 87.7318 143.133 88.1958 143.776C89.0116 144.988 90.461 143.776 90.461 143.776L89.5625 139.129L85.0871 136.326C85.0871 136.326 80.4328 136.894 79.7409 137.208C79.0489 137.521 78.2915 138.84 78.2915 138.84L77.035 139.349C75.0831 139.914 75.1485 141.866 74.5185 141.928C73.8885 141.989 55.5259 138.409 55.5259 138.409L53.8632 137.975C51.1091 140.065 50.011 143.518 49.5256 146.582C49.5256 146.582 49.0195 148.083 49.5256 148.909L73.7267 151.24Z" fill="#FFBE9D"/>
<path d="M70.3558 147.973C70.3341 147.874 70.3283 147.773 70.3386 147.673C70.3373 147.558 70.3477 147.442 70.3696 147.329C70.3856 147.173 70.4156 147.018 70.4591 146.868C70.7176 145.998 71.155 145.193 71.7431 144.503C72.3143 143.809 72.9506 143.171 73.6434 142.599C73.918 142.348 74.2166 142.126 74.5351 141.934C74.2804 142.198 74.0102 142.446 73.7261 142.678C73.0639 143.271 72.4471 143.913 71.8808 144.599C71.3092 145.274 70.869 146.051 70.583 146.888C70.3799 147.546 70.3937 147.976 70.3558 147.973Z" fill="#EB996E"/>
<path d="M78.3089 138.84C78.3089 138.84 78.1575 138.919 77.9234 139.108C77.5971 139.384 77.315 139.708 77.0868 140.069C76.9222 140.313 76.7815 140.572 76.6668 140.843C76.561 141.162 76.4939 141.493 76.4672 141.828C76.4198 142.217 76.2806 142.59 76.061 142.916C75.8118 143.23 75.6068 143.578 75.4516 143.948C75.2159 144.574 75.2159 145.264 75.4516 145.89L75.4757 145.955L75.4172 145.993C74.619 146.509 74.0411 147.303 73.7958 148.22C73.7112 148.582 73.6593 148.951 73.6408 149.322C73.6129 149.226 73.6013 149.126 73.6064 149.026C73.6027 148.747 73.6328 148.468 73.6959 148.196C73.9155 147.232 74.5004 146.391 75.3277 145.849L75.2933 145.952C75.0441 145.286 75.0441 144.552 75.2933 143.886C75.4521 143.505 75.6655 143.149 75.9267 142.829C76.1361 142.521 76.2683 142.167 76.3123 141.797C76.3537 141.141 76.5939 140.513 77.0008 139.996C77.2438 139.63 77.549 139.31 77.9027 139.05C77.998 138.978 78.1021 138.919 78.2125 138.874C78.2431 138.858 78.2755 138.847 78.3089 138.84Z" fill="#EB996E"/>
<path d="M82.7296 140.898C82.2891 140.955 81.8414 140.908 81.4227 140.759C81.004 140.611 80.6262 140.366 80.3198 140.044C80.3542 140.003 80.8155 140.358 81.48 140.588C82.1444 140.819 82.7296 140.847 82.7296 140.898Z" fill="#EB996E"/>
<path d="M83.9044 145.983C83.2396 145.796 82.5932 145.55 81.9731 145.246C81.329 144.999 80.7071 144.697 80.1141 144.344C80.7772 144.536 81.4232 144.782 82.0454 145.081C82.6895 145.328 83.3115 145.63 83.9044 145.983Z" fill="#EB996E"/>
<path d="M79.7653 148.496C79.097 148.269 78.4439 148 77.8099 147.69C78.1692 147.706 78.5212 147.798 78.8427 147.959C79.1858 148.068 79.5007 148.252 79.7653 148.496Z" fill="#EB996E"/>
<path d="M83.2733 146.31C82.977 146.469 82.7163 146.687 82.5073 146.95C82.2983 147.214 82.1455 147.517 82.0581 147.842C82.034 147.842 82.0134 147.721 82.0581 147.529C82.1068 147.276 82.2154 147.039 82.3747 146.837C82.5341 146.635 82.7395 146.474 82.9738 146.368C83.1425 146.296 83.2664 146.289 83.2733 146.31Z" fill="#EB996E"/>
<path d="M85.1176 143.518C85.1383 143.566 84.8009 143.738 84.5737 144.124C84.458 144.369 84.3614 144.622 84.2845 144.881C84.2357 144.739 84.2227 144.587 84.2467 144.439C84.2707 144.29 84.331 144.15 84.4222 144.031C84.6839 143.59 85.1108 143.47 85.1176 143.518Z" fill="#EB996E"/>
<path d="M84.5963 138.461C84.5791 138.461 84.5102 138.382 84.4586 138.216C84.3966 137.991 84.3966 137.753 84.4586 137.528C84.5186 137.305 84.6375 137.103 84.8029 136.943C84.9268 136.822 85.0301 136.781 85.0404 136.798C84.8762 137.039 84.7432 137.299 84.6445 137.573C84.5933 137.866 84.5771 138.164 84.5963 138.461Z" fill="#EB996E"/>
<path d="M121.815 140.044C121.815 140.044 121.585 135.528 116.903 134.591C112.221 133.655 104.021 137.635 104.021 137.635L81.0453 153.646L81.7338 155.625L105.054 152.376L107.188 153.195L123.568 142.434L139.025 131.259L137.303 129.913C137.303 129.913 132.973 132.898 130.109 134.182C127.244 135.466 123.103 137.717 121.815 140.044Z" fill="#F5F5F5"/>
<path d="M80.693 156.28L100.137 144.2L120.692 140.898C120.692 140.898 121.725 142.392 123.47 142.027L140.373 130.323L140.693 131.028L107.913 154.059C107.432 154.235 106.912 154.276 106.409 154.178C105.906 154.079 105.439 153.846 105.059 153.501L80.693 156.28Z" fill="#455A64"/>
<path d="M120.689 140.898C120.643 140.949 120.589 140.993 120.531 141.029L120.056 141.373C119.643 141.669 119.047 142.1 118.335 142.644C116.875 143.728 114.892 145.274 112.751 147.026C110.609 148.778 108.685 150.407 107.308 151.594L105.666 153.006L105.218 153.384C105.17 153.432 105.116 153.474 105.057 153.508C105.057 153.508 105.098 153.453 105.194 153.36L105.618 152.954C105.99 152.61 106.53 152.107 107.212 151.505C108.568 150.293 110.472 148.654 112.623 146.895C114.775 145.136 116.754 143.607 118.245 142.547C118.982 142.014 119.591 141.6 120.018 141.322L120.51 141.005C120.567 140.964 120.626 140.928 120.689 140.898Z" fill="#263238"/>
<path d="M120.478 138.385C118.616 136.385 115.683 135.672 112.956 135.886C110.23 136.099 107.644 137.115 105.1 138.123L81.3157 154.403L81.5291 155.016L105.441 138.836C105.441 138.836 110.784 137.115 113.149 136.819C117.101 136.326 120.478 138.385 120.478 138.385Z" fill="#E0E0E0"/>
<path d="M124.212 140.526L135.648 132.812C135.648 132.812 126.277 137.686 124.212 140.526Z" fill="#E0E0E0"/>
<path d="M81.3157 154.403C81.3449 154.374 81.3772 154.347 81.4121 154.324L81.7081 154.114L82.8476 153.312L87.0613 150.393L101.004 140.819L105.052 138.065C107.356 137.026 109.786 136.295 112.281 135.893C114.297 135.608 116.352 135.898 118.21 136.729C118.904 137.052 119.544 137.482 120.106 138.003C120.527 138.395 120.884 138.849 121.167 139.349C121.344 139.663 121.483 139.997 121.58 140.344C121.604 140.458 121.625 140.547 121.642 140.616C121.649 140.647 121.655 140.678 121.659 140.709C121.535 140.244 121.352 139.798 121.115 139.38C120.826 138.893 120.466 138.451 120.048 138.068C119.484 137.564 118.848 137.146 118.161 136.829C116.321 136.029 114.295 135.757 112.309 136.044C109.834 136.45 107.422 137.175 105.135 138.203H105.152L101.103 140.957L87.1508 150.496L82.9027 153.371L81.746 154.142L81.4396 154.341C81.4006 154.366 81.359 154.387 81.3157 154.403Z" fill="#263238"/>
<path d="M102.139 142.096C102.193 142.051 102.254 142.014 102.318 141.986C102.439 141.921 102.618 141.821 102.848 141.704C103.313 141.463 103.991 141.125 104.845 140.74C107.059 139.702 109.408 138.982 111.823 138.602C114.251 138.236 116.731 138.462 119.052 139.263C119.75 139.515 120.42 139.836 121.053 140.223C121.28 140.354 121.442 140.482 121.555 140.568C121.615 140.605 121.672 140.647 121.724 140.695C121.724 140.695 121.473 140.551 121.018 140.292C120.378 139.933 119.706 139.632 119.011 139.394C116.701 138.636 114.245 138.43 111.84 138.791C109.443 139.171 107.105 139.865 104.89 140.857C104.033 141.229 103.347 141.545 102.872 141.769L102.328 142.02C102.268 142.052 102.205 142.077 102.139 142.096Z" fill="#263238"/>
<path d="M138.413 130.774C138.413 130.774 138.365 130.818 138.265 130.887L137.821 131.183L136.172 132.244C134.775 133.139 132.85 134.375 130.74 135.765C128.63 137.156 126.743 138.433 125.366 139.363L123.738 140.458L123.29 140.75C123.24 140.787 123.186 140.817 123.128 140.84C123.171 140.795 123.218 140.754 123.27 140.719L123.7 140.399C124.072 140.124 124.616 139.735 125.294 139.256C126.65 138.303 128.537 137.005 130.65 135.614C132.764 134.223 134.702 133.004 136.114 132.137C136.819 131.703 137.394 131.359 137.794 131.125L138.258 130.856C138.307 130.824 138.359 130.796 138.413 130.774Z" fill="#263238"/>
<path d="M128.006 143.153C127.772 143.715 127.475 144.249 127.121 144.744C126.68 145.267 125.242 145.997 125.128 146.992C125.014 147.986 125.248 150.32 123.692 152.097C122.689 153.202 121.42 154.031 120.005 154.507L113.867 153.908L104.063 150.048C103.844 149.993 103.655 149.854 103.538 149.66C103.421 149.467 103.384 149.236 103.436 149.016C103.497 148.777 103.628 148.561 103.812 148.397C103.996 148.232 104.225 148.127 104.469 148.093L104.703 148.055C104.703 148.055 104.139 147.594 104.948 146.785C105.636 146.096 107.106 146.485 107.864 146.737C108.621 146.988 113.062 148.844 113.857 149.129C114.563 149.381 115.107 149.604 115.107 149.604C115.107 149.604 109.423 145.769 109.344 145.267C109.251 144.664 109.313 144.389 109.895 143.969C110.583 143.47 111.712 144.003 112.807 144.465C113.623 144.809 118.825 147.377 118.825 147.377C118.825 147.377 119.059 147.15 118.825 146.689C118.591 146.227 116.862 144.003 116.59 143.59C116.318 143.177 116.246 142.943 116.518 142.595C116.897 142.103 117.895 141.869 118.814 142.709C119.396 143.246 121.465 144.637 121.465 144.637L131.015 137.669C131.015 137.669 132.202 137.638 131.789 139.294C131.376 140.95 128.006 143.153 128.006 143.153Z" fill="#FFBE9D"/>
<path d="M120.891 148.961C120.509 148.876 120.153 148.7 119.853 148.448C119.553 148.197 119.319 147.876 119.169 147.515C119.214 147.487 119.493 147.914 119.968 148.31C120.443 148.706 120.915 148.909 120.891 148.961Z" fill="#EB996E"/>
<path d="M121.673 144.805C121.673 144.785 121.801 144.747 122.018 144.775C122.288 144.814 122.543 144.927 122.754 145.101C122.964 145.275 123.123 145.504 123.212 145.763C123.278 145.962 123.267 146.107 123.243 146.107C123.099 145.785 122.893 145.495 122.637 145.253C122.348 145.043 122.021 144.891 121.673 144.805Z" fill="#EB996E"/>
<path d="M122.126 146.723C122.074 146.723 122.05 146.21 121.847 145.625C121.644 145.04 121.358 144.609 121.4 144.592C121.702 144.85 121.917 145.195 122.016 145.58C122.17 145.94 122.208 146.34 122.126 146.723Z" fill="#EB996E"/>
<path d="M127.774 142.657C127.774 142.675 127.653 142.606 127.529 142.44C127.372 142.221 127.274 141.965 127.244 141.697C127.214 141.429 127.253 141.157 127.357 140.908C127.44 140.723 127.533 140.63 127.55 140.643C127.427 140.973 127.384 141.327 127.423 141.677C127.461 142.027 127.582 142.362 127.774 142.657Z" fill="#EB996E"/>
<path d="M119.146 151.364C118.925 151.414 118.696 151.414 118.475 151.364C117.94 151.269 117.426 151.078 116.96 150.799C116.496 150.526 116.059 150.209 115.655 149.852C115.476 149.721 115.317 149.563 115.184 149.384C115.382 149.484 115.567 149.607 115.734 149.752C116.154 150.076 116.593 150.374 117.049 150.644C117.501 150.912 117.989 151.112 118.499 151.24C118.891 151.322 119.146 151.336 119.146 151.364Z" fill="#EB996E"/>
<path d="M120.741 150.379C120.789 150.379 120.793 150.723 120.504 151.009C120.214 151.295 119.863 151.281 119.87 151.233C119.877 151.185 120.142 151.116 120.376 150.888C120.61 150.661 120.69 150.372 120.741 150.379Z" fill="#EB996E"/>
<path d="M123.087 148.658C123.108 148.658 123.108 148.751 123.042 148.875C122.952 149.027 122.816 149.148 122.653 149.219C122.492 149.297 122.31 149.324 122.134 149.295C121.996 149.267 121.927 149.212 121.937 149.191C121.948 149.171 122.254 149.219 122.578 149.057C122.901 148.895 123.039 148.64 123.087 148.658Z" fill="#EB996E"/>
<path d="M114.816 152.565C114.799 152.61 112.516 151.66 109.721 150.438C106.926 149.215 104.674 148.186 104.709 148.145C104.743 148.103 107.012 149.054 109.807 150.276C112.602 151.498 114.837 152.52 114.816 152.565Z" fill="#EB996E"/>
<path d="M155.025 155.636C155.025 155.684 120.317 155.725 77.5159 155.725C34.7147 155.725 0 155.684 0 155.636C0 155.588 34.7009 155.546 77.5159 155.546C120.331 155.546 155.025 155.584 155.025 155.636Z" fill="#263238"/>
<path d="M4.43391 118.962L11.9042 155.636H76.7447C77.088 155.636 77.4173 155.499 77.66 155.256C77.9027 155.014 78.0391 154.684 78.0391 154.341C78.0396 154.171 78.0064 154.002 77.9416 153.845C77.8767 153.687 77.7815 153.544 77.6612 153.424C77.541 153.303 77.3981 153.207 77.2409 153.142C77.0836 153.077 76.915 153.043 76.7447 153.043H63.6906L56.7641 118.924C56.7 118.606 56.528 118.319 56.2771 118.113C56.0263 117.907 55.7119 117.793 55.3871 117.792L5.83847 117.261C5.62704 117.259 5.4178 117.304 5.22606 117.394C5.03431 117.483 4.86492 117.613 4.73027 117.777C4.59563 117.94 4.49914 118.131 4.44786 118.336C4.39658 118.541 4.39181 118.755 4.43391 118.962Z" fill="#E0E0E0"/>
<path d="M4.43204 118.962L4.41139 118.852C4.39738 118.738 4.39738 118.622 4.41139 118.508C4.43584 118.288 4.51071 118.078 4.63015 117.892C4.74959 117.706 4.91036 117.55 5.0999 117.437C5.23153 117.356 5.37583 117.298 5.52678 117.265C5.69507 117.237 5.86583 117.227 6.03627 117.234H7.2033L10.1226 117.258L28.8604 117.434L41.9214 117.568L49.2403 117.64L53.0753 117.682L55.0376 117.702C55.2062 117.702 55.3612 117.702 55.5402 117.702C55.715 117.722 55.8851 117.772 56.0428 117.85C56.3606 118.005 56.6122 118.269 56.7519 118.594C56.8165 118.755 56.8627 118.922 56.8897 119.093L56.9895 119.585C57.0549 119.93 57.1237 120.246 57.1926 120.577C57.3257 121.24 57.4611 121.908 57.5988 122.58C57.8719 123.923 58.1485 125.283 58.4285 126.66C58.9885 129.414 59.5622 132.229 60.1497 135.104C61.3168 140.853 62.5354 146.833 63.7851 153.006L63.699 152.937H76.5363C76.7056 152.93 76.8751 152.941 77.0423 152.968C77.3869 153.042 77.69 153.245 77.8892 153.536C78.0908 153.826 78.1733 154.182 78.1199 154.531C78.0886 154.742 78.0085 154.943 77.886 155.118C77.7635 155.293 77.602 155.438 77.4141 155.539C77.225 155.64 77.0155 155.697 76.8014 155.705H42.3449H11.9024H11.8473V155.65C9.56145 144.375 7.71624 135.208 6.4184 128.853C5.77808 125.679 5.28235 123.207 4.94498 121.527C4.77974 120.687 4.65351 120.05 4.5663 119.616C4.48024 119.183 4.44237 118.962 4.44237 118.962C4.44237 118.962 4.49401 119.183 4.58352 119.609C4.67302 120.036 4.81072 120.684 4.98285 121.517C5.32711 123.197 5.84005 125.665 6.49413 128.839C7.79542 135.19 9.67161 144.355 11.9816 155.622L11.9127 155.567L42.3552 155.55H76.7876C76.9726 155.542 77.1536 155.494 77.3177 155.409C77.4806 155.319 77.6208 155.193 77.7276 155.041C77.8344 154.889 77.905 154.714 77.934 154.531C77.9784 154.226 77.9072 153.915 77.7343 153.66C77.5581 153.409 77.2939 153.233 76.9941 153.167C76.8392 153.144 76.6825 153.135 76.526 153.14H63.6164V153.071C62.3667 146.905 61.1515 140.926 59.9879 135.17C59.4027 132.292 58.829 129.476 58.2667 126.722L57.4405 122.642C57.3062 121.971 57.1685 121.303 57.0342 120.642C56.9688 120.298 56.9 119.978 56.8346 119.651L56.7347 119.155C56.709 118.995 56.6674 118.838 56.6108 118.687C56.5161 118.47 56.3656 118.281 56.1745 118.141C55.9835 118.001 55.7586 117.913 55.523 117.888C55.3715 117.888 55.1994 117.888 55.0376 117.888L53.0753 117.864L49.2369 117.823L41.9214 117.737L28.8569 117.582L10.1191 117.351L7.2033 117.313L6.03627 117.296C5.86823 117.286 5.69957 117.295 5.53366 117.324C5.38574 117.354 5.24384 117.409 5.11367 117.485C4.92796 117.594 4.76942 117.743 4.65012 117.922C4.53081 118.101 4.45388 118.305 4.42516 118.518C4.41149 118.666 4.41379 118.815 4.43204 118.962Z" fill="#263238"/>
<path d="M32.1725 137.886C33.3551 137.886 34.3138 136.927 34.3138 135.745C34.3138 134.562 33.3551 133.603 32.1725 133.603C30.9899 133.603 30.0312 134.562 30.0312 135.745C30.0312 136.927 30.9899 137.886 32.1725 137.886Z" fill="white"/>
<path d="M4.49658 119.269C4.49658 119.269 4.57232 119.269 4.72035 119.269H7.89438L17.1652 119.313L47.7523 119.527L52.1759 119.565H53.2638C53.4492 119.558 53.6349 119.569 53.818 119.599C54.0982 119.656 54.3571 119.789 54.5661 119.984C54.7751 120.18 54.926 120.429 55.0023 120.704C55.0849 121.048 55.1434 121.393 55.2157 121.737L56.7958 129.703C57.7976 134.781 58.703 139.342 59.4604 143.194C60.2177 147.047 60.8374 150.138 61.2436 152.29C61.4502 153.36 61.6085 154.193 61.7187 154.765C61.7703 155.044 61.8116 155.26 61.8392 155.412C61.8667 155.563 61.8736 155.632 61.8736 155.632C61.8736 155.632 61.8529 155.56 61.822 155.415C61.791 155.271 61.7428 155.05 61.6843 154.772L61.1748 152.317C60.741 150.165 60.1144 147.064 59.3364 143.232C58.5584 139.401 57.6496 134.822 56.634 129.748C56.128 127.211 55.6013 124.546 55.0436 121.785C54.9713 121.441 54.9093 121.097 54.8336 120.752C54.7427 120.425 54.5343 120.143 54.2483 119.961C54.1066 119.87 53.9489 119.807 53.7836 119.775C53.6107 119.746 53.4354 119.736 53.2603 119.744H52.1759L47.7523 119.709L17.1652 119.441L7.89438 119.337L5.37443 119.269H4.71691H4.49658Z" fill="#263238"/>
</svg>
