<svg width="92" height="33" viewBox="0 0 92 33" fill="none" xmlns="http://www.w3.org/2000/svg">
<path d="M8.51671 25.9014C8.51179 26.6522 8.74133 27.3865 9.17457 28.0058C9.60789 28.6251 10.2241 29.0996 10.9407 29.3658C17.2096 31.5907 24.0766 31.5907 30.3455 29.3658C31.062 29.0996 31.6783 28.6251 32.1116 28.0058C32.5448 27.3865 32.7744 26.6522 32.7695 25.9014V16.8652L22.2147 21.8302C21.7245 22.062 21.1873 22.1823 20.6431 22.1823C20.0988 22.1823 19.5616 22.062 19.0715 21.8302L8.51671 16.8652V25.9014Z" fill="url(#paint0_linear_1_1250)"/>
<path d="M21.6151 19.231C20.2445 19.231 19.0664 19.0231 18.0808 18.6073C17.0952 18.1915 16.3483 17.6448 15.8401 16.9672C15.3319 16.2896 15.0624 15.5581 15.0316 14.7727C15.0316 14.6341 15.0778 14.5186 15.1702 14.4262C15.2626 14.3338 15.3781 14.2876 15.5167 14.2876H17.5726C17.7574 14.2876 17.896 14.3261 17.9884 14.4031C18.0962 14.4647 18.1963 14.5725 18.2887 14.7265C18.4427 15.2501 18.7969 15.689 19.3513 16.0432C19.9057 16.3974 20.6603 16.5745 21.6151 16.5745C22.7085 16.5745 23.5324 16.3974 24.0868 16.0432C24.6412 15.6736 24.9184 15.1654 24.9184 14.5186C24.9184 14.0874 24.7721 13.7332 24.4795 13.456C24.2023 13.1788 23.7788 12.9401 23.209 12.7399C22.6546 12.5397 21.823 12.2933 20.7142 12.0007C18.897 11.5695 17.5649 10.9997 16.7179 10.2913C15.8863 9.5675 15.4705 8.5434 15.4705 7.219C15.4705 6.3258 15.7092 5.5327 16.1866 4.8397C16.6794 4.1467 17.3801 3.6 18.2887 3.1996C19.2127 2.7992 20.283 2.599 21.4996 2.599C22.7624 2.599 23.8558 2.8223 24.7798 3.2689C25.7038 3.7155 26.4045 4.2776 26.8819 4.9552C27.3747 5.6174 27.6365 6.2796 27.6673 6.9418C27.6673 7.0804 27.6211 7.1959 27.5287 7.2883C27.4363 7.3807 27.3208 7.4269 27.1822 7.4269H25.0339C24.7105 7.4269 24.4872 7.2806 24.364 6.988C24.2716 6.4952 23.9636 6.0871 23.44 5.7637C22.9164 5.4249 22.2696 5.2555 21.4996 5.2555C20.6372 5.2555 19.9596 5.4172 19.4668 5.7406C18.974 6.064 18.7276 6.5337 18.7276 7.1497C18.7276 7.5809 18.8508 7.9351 19.0972 8.2123C19.3436 8.4895 19.7286 8.7359 20.2522 8.9515C20.7912 9.1671 21.5612 9.4058 22.5622 9.6676C23.9174 9.9756 24.9954 10.3221 25.7962 10.7071C26.6124 11.0921 27.213 11.5772 27.598 12.1624C27.983 12.7476 28.1755 13.4945 28.1755 14.4031C28.1755 15.3887 27.8983 16.2511 27.3439 16.9903C26.8049 17.7141 26.0349 18.2685 25.0339 18.6535C24.0483 19.0385 22.9087 19.231 21.6151 19.231ZM34.7541 19C34.6001 19 34.4692 18.9461 34.3614 18.8383C34.2536 18.7305 34.1997 18.5996 34.1997 18.4456V5.6713H29.9262C29.7722 5.6713 29.6413 5.6174 29.5335 5.5096C29.4257 5.4018 29.3718 5.2709 29.3718 5.1169V3.4075C29.3718 3.2381 29.418 3.0995 29.5104 2.9917C29.6182 2.8839 29.7568 2.83 29.9262 2.83H41.7072C41.8766 2.83 42.0152 2.8839 42.123 2.9917C42.2308 3.0995 42.2847 3.2381 42.2847 3.4075V5.1169C42.2847 5.2709 42.2308 5.4018 42.123 5.5096C42.0152 5.6174 41.8766 5.6713 41.7072 5.6713H37.4568V18.4456C37.4568 18.5996 37.4029 18.7305 37.2951 18.8383C37.1873 18.9461 37.0487 19 36.8793 19H34.7541ZM51.0735 19.231C48.9945 19.231 47.3775 18.6997 46.2225 17.6371C45.0675 16.5745 44.49 14.9652 44.49 12.8092V3.4075C44.49 3.2381 44.5362 3.0995 44.6286 2.9917C44.7364 2.8839 44.875 2.83 45.0444 2.83H47.1465C47.3159 2.83 47.4468 2.8839 47.5392 2.9917C47.647 3.0995 47.7009 3.2381 47.7009 3.4075V12.8092C47.7009 14.0412 47.9935 14.9729 48.5787 15.6043C49.1639 16.2203 49.9955 16.5283 51.0735 16.5283C52.1515 16.5283 52.9754 16.2203 53.5452 15.6043C54.1304 14.9729 54.423 14.0412 54.423 12.8092V3.4075C54.423 3.2381 54.4769 3.0995 54.5847 2.9917C54.6925 2.8839 54.8311 2.83 55.0005 2.83H57.0795C57.2489 2.83 57.3798 2.8839 57.4722 2.9917C57.58 3.0995 57.6339 3.2381 57.6339 3.4075V12.8092C57.6339 14.9652 57.0564 16.5745 55.9014 17.6371C54.7618 18.6997 53.1525 19.231 51.0735 19.231ZM61.6508 19C61.4968 19 61.3659 18.9461 61.2581 18.8383C61.1503 18.7305 61.0964 18.5996 61.0964 18.4456V3.4075C61.0964 3.2381 61.1426 3.0995 61.235 2.9917C61.3428 2.8839 61.4814 2.83 61.6508 2.83H67.2872C71.8148 2.83 74.1248 4.9244 74.2172 9.1132C74.248 10.0064 74.2634 10.607 74.2634 10.915C74.2634 11.2076 74.248 11.8005 74.2172 12.6937C74.1556 14.8497 73.5781 16.4436 72.4847 17.4754C71.3913 18.4918 69.6973 19 67.4027 19H61.6508ZM67.2872 16.3435C68.5808 16.3435 69.5125 16.0586 70.0823 15.4888C70.6521 14.9036 70.9524 13.9488 70.9832 12.6244C71.014 11.7004 71.0294 11.1229 71.0294 10.8919C71.0294 10.6455 71.014 10.0757 70.9832 9.1825C70.9524 7.9197 70.629 6.988 70.013 6.3874C69.4124 5.7868 68.4653 5.4865 67.1717 5.4865H64.3073V16.3435H67.2872ZM81.4215 19C81.2675 19 81.1366 18.9461 81.0288 18.8383C80.921 18.7305 80.8671 18.5996 80.8671 18.4456V13.225L75.4155 3.5692C75.3693 3.4922 75.3462 3.4075 75.3462 3.3151C75.3462 3.1765 75.3924 3.061 75.4848 2.9686C75.5772 2.8762 75.685 2.83 75.8082 2.83H77.8641C78.0335 2.83 78.1721 2.8762 78.2799 2.9686C78.4031 3.061 78.4955 3.1611 78.5571 3.2689L82.4841 9.991L86.388 3.2689C86.5728 2.9763 86.8115 2.83 87.1041 2.83H89.1369C89.2755 2.83 89.391 2.8762 89.4834 2.9686C89.5758 3.061 89.622 3.1765 89.622 3.3151C89.622 3.4075 89.5989 3.4922 89.5527 3.5692L84.1011 13.225V18.4456C84.1011 18.5996 84.0472 18.7305 83.9394 18.8383C83.8316 18.9461 83.693 19 83.5236 19H81.4215Z" fill="white"/>
<defs>
<linearGradient id="paint0_linear_1_1250" x1="20.4102" y1="0" x2="20.4102" y2="33" gradientUnits="userSpaceOnUse">
<stop stop-color="#FF3F58"/>
<stop offset="1" stop-color="#E40C28"/>
</linearGradient>
</defs>
</svg>
