<svg width="13" height="15" viewBox="0 0 13 15" fill="none" xmlns="http://www.w3.org/2000/svg">
<path d="M0 7.93199C0 11.5182 2.91379 14.432 6.5 14.432C10.0862 14.432 13 11.5182 13 7.93199C13 6.15134 12.2778 4.52012 11.1073 3.34962L11.6178 2.83908L11.8544 3.07567C11.954 3.17529 12.0785 3.2251 12.2155 3.2251C12.3525 3.2251 12.477 3.17529 12.5766 3.07567C12.7759 2.87644 12.7759 2.55268 12.5766 2.35345L11.3937 1.1705C11.1944 0.971264 10.8707 0.971264 10.6715 1.1705C10.4722 1.36973 10.4722 1.69349 10.6715 1.89272L10.908 2.12931L10.3477 2.68966C9.40134 1.99234 8.2682 1.55651 7.02299 1.4569V1.02107H8.15613C8.44253 1.02107 8.66667 0.796935 8.66667 0.510536C8.66667 0.224138 8.44253 0 8.15613 0H4.79406C4.50766 0 4.28352 0.224138 4.28352 0.510536C4.28352 0.796935 4.50766 1.02107 4.79406 1.02107H6.00192V1.4569C2.63985 1.71839 0 4.52011 0 7.93199ZM6.5 2.45307C9.52586 2.45307 11.9914 4.91858 11.9914 7.94445C11.9914 10.9703 9.52586 13.4358 6.5 13.4358C3.47414 13.4358 1.00862 10.9703 1.00862 7.94445C1.00862 4.90613 3.47414 2.45307 6.5 2.45307Z" fill="#F5F0F1"/>
<path d="M6.50126 8.35537H8.68038C8.96678 8.35537 9.19091 8.13123 9.19091 7.84483C9.19091 7.55843 8.96678 7.3343 8.68038 7.3343H7.0118V4.7069C7.0118 4.4205 6.78766 4.19637 6.50126 4.19637C6.21486 4.19637 5.99072 4.4205 5.99072 4.7069V7.85728C5.99072 8.13123 6.21486 8.35537 6.50126 8.35537Z" fill="#F5F0F1"/>
</svg>
