<svg width="17" height="15" viewBox="0 0 17 15" fill="none" xmlns="http://www.w3.org/2000/svg">
<path d="M3.7063 5.39347C4.12342 2.81749 6.82677 0.830582 10.081 0.830582C13.6186 0.830582 16.3283 3.18686 16.3283 6.0908C16.3283 7.36446 15.9748 8.53305 14.7012 9.44372C14.5561 10.3338 14.6215 11.2455 14.8922 12.1057C14.9087 12.1621 14.9091 12.222 14.8936 12.2787C14.8781 12.3353 14.8473 12.3866 14.8044 12.4269C14.7615 12.4671 14.7084 12.4946 14.6508 12.5065C14.5933 12.5184 14.5336 12.5141 14.4783 12.4941L11.0362 11.2778C10.7063 11.3276 10.3732 11.3531 10.0396 11.3542" stroke="#F5F0F1" stroke-width="0.928573" stroke-linecap="round" stroke-linejoin="round"/>
<path d="M11.0884 11.2779C11.811 11.1373 12.5079 10.8871 13.1549 10.5359" stroke="#F5F0F1" stroke-width="0.928573" stroke-linecap="round" stroke-linejoin="round"/>
<path d="M5.83632 4.98908C3.0884 4.98908 1.00278 6.81679 1.00278 9.07117C0.981122 9.57663 1.08632 10.0795 1.30879 10.5339C1.53126 10.9883 1.86391 11.3797 2.27644 11.6726V11.6726C2.41201 12.3067 2.38018 12.9651 2.1841 13.5831C2.16567 13.6398 2.16352 13.7005 2.17788 13.7583C2.19224 13.8161 2.22254 13.8688 2.26533 13.9102C2.30812 13.9517 2.36169 13.9803 2.41994 13.9929C2.4782 14.0054 2.5388 14.0013 2.59486 13.9811L5.09442 13.0959C5.34964 13.1328 5.60711 13.1519 5.86498 13.1533C8.61291 13.1533 10.8227 11.3255 10.8227 9.07117C10.8227 6.81679 8.58425 4.98908 5.83632 4.98908Z" stroke="#F5F0F1" stroke-width="0.928573" stroke-linecap="round" stroke-linejoin="round"/>
<path d="M5.05216 13.096C4.49539 12.9854 3.9586 12.7911 3.46008 12.5197" stroke="#F5F0F1" stroke-width="0.928573" stroke-linecap="round" stroke-linejoin="round"/>
<path d="M3.7066 9.79715C4.02842 9.79715 4.2893 9.53627 4.2893 9.21445C4.2893 8.89264 4.02842 8.63175 3.7066 8.63175C3.38479 8.63175 3.1239 8.89264 3.1239 9.21445C3.1239 9.53627 3.38479 9.79715 3.7066 9.79715Z" fill="#F5F0F1"/>
<path d="M5.99212 9.79715C6.31394 9.79715 6.57482 9.53627 6.57482 9.21445C6.57482 8.89264 6.31394 8.63175 5.99212 8.63175C5.67031 8.63175 5.40942 8.89264 5.40942 9.21445C5.40942 9.53627 5.67031 9.79715 5.99212 9.79715Z" fill="#F5F0F1"/>
<path d="M8.27582 9.79715C8.59763 9.79715 8.85852 9.53627 8.85852 9.21445C8.85852 8.89264 8.59763 8.63175 8.27582 8.63175C7.954 8.63175 7.69312 8.89264 7.69312 9.21445C7.69312 9.53627 7.954 9.79715 8.27582 9.79715Z" fill="#F5F0F1"/>
<path d="M10.8314 6.45375C11.1532 6.45375 11.4141 6.19287 11.4141 5.87105C11.4141 5.54924 11.1532 5.28835 10.8314 5.28835C10.5095 5.28835 10.2487 5.54924 10.2487 5.87105C10.2487 6.19287 10.5095 6.45375 10.8314 6.45375Z" fill="#F5F0F1"/>
<path d="M13.1133 6.45375C13.4352 6.45375 13.696 6.19287 13.696 5.87105C13.696 5.54924 13.4352 5.28835 13.1133 5.28835C12.7915 5.28835 12.5306 5.54924 12.5306 5.87105C12.5306 6.19287 12.7915 6.45375 13.1133 6.45375Z" fill="#F5F0F1"/>
</svg>
