<svg width="34" height="34" viewBox="0 0 34 34" fill="none" xmlns="http://www.w3.org/2000/svg">
<circle opacity="0.1" cx="17" cy="17" r="17" fill="#F2E9EA"/>
<path d="M13.8967 11.1344L12.8927 10.1077C11.2076 11.4215 10.0983 13.4462 10 15.7436H11.4042C11.5095 13.841 12.4644 12.1754 13.8967 11.1344ZM22.5958 15.7436H24C23.8947 13.4462 22.7854 11.4215 21.1073 10.1077L20.1103 11.1344C21.5286 12.1754 22.4905 13.841 22.5958 15.7436ZM21.2126 16.1026C21.2126 13.8985 20.0612 12.0533 18.0532 11.5651V11.0769C18.0532 10.481 17.5827 10 17 10C16.4173 10 15.9468 10.481 15.9468 11.0769V11.5651C13.9318 12.0533 12.7874 13.8913 12.7874 16.1026V19.6923L11.3831 21.1282V21.8462H22.6169V21.1282L21.2126 19.6923V16.1026ZM17 24C17.0983 24 17.1896 23.9928 17.2808 23.9713C17.7372 23.8708 18.1093 23.5549 18.2919 23.1241C18.3621 22.9518 18.3972 22.7651 18.3972 22.5641H15.5888C15.5958 23.3538 16.2207 24 17 24Z" fill="#F2E9EA"/>
</svg>
