<svg width="13" height="16" viewBox="0 0 13 16" fill="none" xmlns="http://www.w3.org/2000/svg">
<g opacity="0.7">
<path d="M12.2879 10.8L11.7279 9.96C10.8319 8.616 10.3839 6.992 10.3839 5.368C10.3839 3.632 9.26388 2.176 7.75188 1.728C7.58388 1.28 7.13588 1 6.68788 1C6.23988 1 5.79188 1.28 5.62388 1.728C4.11188 2.176 2.99188 3.632 2.99188 5.368C2.99188 6.992 2.54388 8.616 1.64788 9.96L1.08788 10.8C0.863876 11.192 1.08788 11.64 1.53588 11.64H11.7839C12.2319 11.64 12.5119 11.136 12.2879 10.8Z" stroke="#F5F0F1" stroke-width="1.2" stroke-miterlimit="10" stroke-linejoin="round"/>
<path d="M8.3683 13.32C8.3683 14.272 7.6403 15 6.6883 15C5.7363 15 5.0083 14.272 5.0083 13.32" stroke="#F5F0F1" stroke-width="1.2" stroke-miterlimit="10" stroke-linejoin="round"/>
</g>
</svg>
