<svg width="21" height="26" viewBox="0 0 21 26" fill="none" xmlns="http://www.w3.org/2000/svg">
<path d="M4.2609 13.9948C4.40536 14.1666 4.38931 14.4222 4.21676 14.566C4.0442 14.7098 3.78737 14.6938 3.64291 14.522C1.88524 12.4771 0.978322 10.1625 1.00039 7.82C1.02246 5.5334 1.91935 3.23481 3.75928 1.13593C3.90375 0.970175 4.16058 0.954199 4.33313 1.09799C4.49967 1.24177 4.51773 1.49739 4.37125 1.66914C2.66375 3.61225 1.82906 5.7331 1.81301 7.82599C1.79696 9.9748 2.63165 12.0996 4.2609 13.9948ZM11.4541 9.01822C11.6828 11.834 12.1985 14.4621 12.9489 16.7727H7.91467C8.67111 14.4342 9.1968 11.7721 9.43557 8.91237L9.42554 8.90239C9.14664 8.6248 8.9801 8.24936 8.9801 7.82799C8.9801 7.40661 9.15266 7.03117 9.42554 6.75358C9.70444 6.47599 10.0817 6.31024 10.505 6.31024C10.9284 6.31024 11.3056 6.48199 11.5845 6.75358C11.8634 7.03117 12.0299 7.40661 12.0299 7.82799C12.0299 8.06164 11.9778 8.27931 11.8835 8.47702C11.7731 8.70069 11.6286 8.88242 11.4541 9.01822ZM13.2137 17.5495C13.4064 18.0887 13.613 18.61 13.8337 19.1092H7.03584C7.25254 18.61 7.4572 18.0887 7.64982 17.5495H13.2137ZM14.1929 19.8901C14.8189 21.1722 17.7363 24.7169 17.7363 25.0204C17.7363 25.1942 17.6922 25.3679 17.6019 25.5417H14.4959C14.526 22.0848 10.1439 20.4392 7.71804 22.7738C6.99571 23.4687 6.61849 24.4273 6.44594 25.5417H3.39611C3.2998 25.3719 3.26569 25.1882 3.27773 24.9945C3.2978 24.677 6.07474 21.1482 6.67869 19.8921H14.1929V19.8901ZM6.38574 12.0277C6.53623 12.1935 6.52018 12.4491 6.35163 12.5989C6.1851 12.7487 5.92827 12.7327 5.77779 12.5649C4.42543 11.0432 3.73119 9.4316 3.75928 7.79803C3.78737 6.20839 4.49365 4.61476 5.93429 3.09102C6.09079 2.93126 6.34562 2.91928 6.50814 3.07505C6.66866 3.23082 6.6807 3.48444 6.52419 3.6462C5.22801 5.02016 4.58795 6.42607 4.56588 7.81001C4.54381 9.23789 5.16581 10.6678 6.37972 12.0357L6.38574 12.0277ZM8.2658 10.1565C8.40425 10.3283 8.38218 10.5819 8.2036 10.7217C8.03105 10.8595 7.77622 10.8375 7.63577 10.6618C6.90742 9.7711 6.5282 8.80054 6.52218 7.816C6.51616 6.85743 6.87733 5.89486 7.61771 4.9922C7.75616 4.82045 8.01299 4.7925 8.18554 4.93029C8.3581 5.06809 8.38619 5.32371 8.24774 5.49545C7.62975 6.24833 7.33079 7.04115 7.33079 7.81001C7.33079 8.60084 7.65383 9.39965 8.25978 10.1465L8.2658 10.1565ZM17.3571 14.52C17.2126 14.6918 16.9558 14.7078 16.7832 14.564C16.6107 14.4202 16.5946 14.1646 16.7391 13.9928C18.3684 12.0996 19.2091 9.96681 19.187 7.82399C19.1709 5.7331 18.3362 3.61225 16.6287 1.66914C16.4843 1.50338 16.5003 1.24776 16.6669 1.09799C16.8334 0.954199 17.0902 0.970175 17.2407 1.13593C19.0827 3.23481 19.9775 5.5334 19.9996 7.82C20.0217 10.1625 19.1148 12.4771 17.3571 14.52ZM15.2262 12.559C15.0757 12.7247 14.8209 12.7427 14.6524 12.5929C14.4858 12.4431 14.4678 12.1895 14.6183 12.0218C15.8362 10.6538 16.4542 9.22591 16.4321 7.79603C16.41 6.4061 15.77 5.00019 14.4738 3.63222C14.3173 3.47246 14.3293 3.21684 14.4899 3.06107C14.6504 2.9053 14.9072 2.91728 15.0637 3.07704C16.5064 4.60278 17.2126 6.19242 17.2407 7.78605C17.2688 9.41962 16.5786 11.0312 15.2222 12.553L15.2262 12.559ZM13.3682 10.6598C13.2298 10.8315 12.973 10.8595 12.8004 10.7197C12.6279 10.5819 12.5998 10.3263 12.7382 10.1545C13.3502 9.40764 13.6672 8.60883 13.6672 7.818C13.6672 7.04315 13.3723 6.25632 12.7503 5.50344C12.6118 5.33169 12.6339 5.07607 12.8125 4.93828C12.985 4.80048 13.2418 4.82245 13.3803 4.99819C14.1207 5.90085 14.4818 6.86342 14.4758 7.82199C14.4698 8.80853 14.0926 9.7711 13.3622 10.6678L13.3682 10.6598Z" fill="#F5F0F1" stroke="#F5F0F1" stroke-width="0.6"/>
</svg>
