<svg width="20" height="28" viewBox="0 0 20 28" fill="none" xmlns="http://www.w3.org/2000/svg">
<path fill-rule="evenodd" clip-rule="evenodd" d="M8.56596 0.446598C9.59059 -0.246932 10.7584 -0.094803 11.7226 0.641234C11.9754 0.835869 12.1924 1.07301 12.3647 1.36161C12.5101 1.6077 12.7674 2.10883 12.2886 2.18713C12.1007 2.21845 11.7696 1.96118 11.5168 1.8784C11.1902 1.77325 10.8546 1.7039 10.5213 1.67034C9.89933 1.60546 9.28857 1.65692 8.76283 1.80234C8.47647 1.88064 8.2013 1.97684 7.93507 2.09988C7.81203 2.15805 7.55922 2.32584 7.48987 2.10883C7.32879 1.6077 8.19682 0.694926 8.56596 0.446598ZM0.787238 17.8139H2.25036C2.98416 16.673 4.56362 16.0779 5.97529 15.5454C6.25717 15.438 6.53235 15.3351 6.79186 15.23L6.79634 15.2255C7.03572 15.0219 7.28181 14.7781 7.47645 14.561C7.61963 14.4 7.73372 14.2613 7.79413 14.1718C7.74491 14.1293 7.69345 14.0868 7.64424 14.0398C7.28181 13.7132 6.95294 13.3082 6.6554 12.8384C6.38022 12.4022 6.13189 11.9077 5.90817 11.3619C5.80974 11.3328 5.71577 11.297 5.62629 11.2545C5.49877 11.1941 5.38243 11.1247 5.27728 11.0442C4.96631 10.807 4.76273 10.4826 4.64192 10.1269C4.50993 9.72871 4.48532 9.29022 4.53901 8.88529C4.56809 8.67499 4.62626 8.49378 4.71351 8.34165C4.80524 8.18281 4.92828 8.05305 5.08041 7.95462C5.12516 7.92553 5.17661 7.91435 5.22583 7.91882C5.13858 7.47138 5.152 7.04408 5.17214 6.54071C5.21912 5.22748 5.55246 4.17824 6.58828 3.2677C8.14984 1.89406 11.2394 1.77549 12.9598 2.95673C13.2148 3.13347 13.452 3.34153 13.6645 3.58538C14.3625 4.38629 14.9822 6.14473 14.971 7.22753C14.9688 7.4781 14.9263 7.73314 14.8413 7.99265C14.8368 8.01726 14.8323 8.04634 14.8256 8.07766C15.0158 8.19623 15.1634 8.34165 15.2708 8.5072C15.4319 8.75329 15.5013 9.03518 15.4856 9.33273C15.4699 9.61909 15.3715 9.92111 15.1925 10.2142C14.9867 10.5542 14.669 10.8876 14.2484 11.1762C13.8815 12.033 13.367 12.8921 12.745 13.5812C12.5459 13.8026 12.3334 14.0062 12.1119 14.1874C12.2909 14.3798 12.622 14.6662 12.9374 14.9369C12.9934 14.9839 13.0493 15.0331 13.1052 15.0823C13.4072 15.2188 13.7026 15.3396 13.9979 15.4626C15.3156 16.0018 16.6556 16.5521 17.3514 17.8139H19.2128C19.6826 17.8139 20.0629 18.2524 19.9913 18.7893L18.9734 26.5144C18.904 27.0468 18.5349 27.4898 17.998 27.4898H2.00203C1.46511 27.4898 1.09597 27.0468 1.02662 26.5144L0.00869504 18.7893C-0.0628951 18.2547 0.317428 17.8139 0.787238 17.8139ZM3.09826 17.8139H16.5572C15.9174 16.966 14.8234 16.5186 13.7451 16.0756C13.5191 15.9839 13.2954 15.8922 13.0806 15.7982C12.9016 16.0421 12.6824 16.2546 12.4341 16.4336C11.839 16.8654 11.0694 17.1137 10.2752 17.1517C9.48545 17.1897 8.66663 17.022 7.96863 16.6193C7.61963 16.4179 7.30194 16.1606 7.03348 15.8452C6.77173 15.9526 6.49208 16.0555 6.20796 16.1651C5.06923 16.5991 3.81416 17.0734 3.09826 17.8139ZM9.91051 21.4538C10.5571 21.4538 11.0806 21.9773 11.0806 22.6239C11.0806 23.2704 10.5571 23.7939 9.91051 23.7939C9.26396 23.7939 8.74046 23.2704 8.74046 22.6239C8.74046 21.9773 9.26396 21.4538 9.91051 21.4538ZM9.3266 12.9771C9.21922 12.9122 9.18566 12.7713 9.25054 12.6639C9.31542 12.5565 9.45636 12.523 9.56375 12.5878C9.73601 12.693 9.90604 12.7489 10.0716 12.7556C10.2371 12.7623 10.4049 12.7221 10.575 12.6326C10.6868 12.5744 10.8255 12.6192 10.8837 12.731C10.9419 12.8429 10.8971 12.9816 10.7853 13.0398C10.5436 13.165 10.2998 13.2232 10.0537 13.212C9.80984 13.2008 9.56598 13.1225 9.3266 12.9771ZM12.0672 9.16718C12.3893 9.16718 12.6488 9.42893 12.6488 9.74885C12.6488 10.071 12.3871 10.3305 12.0672 10.3305C11.7472 10.3305 11.4855 10.0688 11.4855 9.74885C11.4833 9.42669 11.745 9.16718 12.0672 9.16718ZM8.06259 9.16718C8.38475 9.16718 8.64426 9.42893 8.64426 9.74885C8.64426 10.071 8.38251 10.3305 8.06259 10.3305C7.74044 10.3305 7.48092 10.0688 7.48092 9.74885C7.48092 9.42669 7.74044 9.16718 8.06259 9.16718ZM5.34216 8.35284L5.33769 8.35507C5.25044 8.41101 5.18109 8.48483 5.12739 8.57879C5.06923 8.67947 5.03119 8.80251 5.01106 8.95017C4.96631 9.28798 4.98645 9.65265 5.09383 9.97928C5.18332 10.25 5.33769 10.4938 5.56588 10.6706C5.64642 10.7332 5.73367 10.7847 5.82763 10.8294C5.92383 10.8742 6.02674 10.9099 6.1386 10.9368C6.21691 10.9547 6.27507 11.0106 6.30416 11.08C6.53011 11.6437 6.77844 12.1494 7.05585 12.5901C7.32879 13.0241 7.63081 13.3932 7.96192 13.693C8.31539 14.0129 8.6644 14.2367 9.00669 14.3798C9.63534 14.6438 10.2394 14.6282 10.8009 14.4201C11.3781 14.2076 11.915 13.7915 12.3893 13.2657C12.9889 12.6013 13.4833 11.7646 13.8345 10.9301C13.8569 10.8786 13.895 10.8384 13.9397 10.8138C14.3223 10.5587 14.6041 10.2679 14.7831 9.97257C14.9196 9.74885 14.9934 9.52289 15.0068 9.31259C15.018 9.11348 14.9733 8.9278 14.8704 8.77119C14.8144 8.68842 14.7451 8.61012 14.6556 8.543C14.4766 8.94793 14.1768 9.48262 13.7898 10.0128V7.58324C12.6757 7.06645 11.9486 5.93443 11.5772 4.22969C11.132 7.47362 7.14982 7.33268 6.14755 7.92553V9.8182C5.95739 9.55197 5.78736 9.27904 5.633 9.00386C5.50772 8.77343 5.41152 8.55866 5.34216 8.35284ZM8.15655 14.447C8.07378 14.5678 7.9552 14.7132 7.8165 14.8675C7.70016 14.9973 7.56593 15.136 7.42499 15.2702C7.66661 15.5969 7.96639 15.8541 8.29973 16.0465C8.88364 16.3821 9.57493 16.5231 10.2439 16.4917C10.9105 16.4582 11.5504 16.2546 12.0426 15.8967C12.2797 15.7244 12.481 15.5163 12.6309 15.2792C12.2954 14.9906 11.9441 14.6841 11.7405 14.4626C11.4922 14.6282 11.2327 14.7646 10.962 14.8631C10.2908 15.1114 9.56822 15.1293 8.81876 14.8139C8.60175 14.7221 8.38027 14.6013 8.15655 14.447Z" fill="#F5F0F1"/>
</svg>
