<svg width="11" height="14" viewBox="0 0 11 14" fill="none" xmlns="http://www.w3.org/2000/svg">
<path d="M3.62424 0.155969C3.22389 0.356146 2.86973 0.771897 2.80044 1.11836L2.75424 1.38013H1.96124C1.02194 1.38013 0.660084 1.52641 0.267429 2.05765L0.0287567 2.39641L0.00565935 7.40854C-0.00973889 10.7192 0.00565935 12.5208 0.0595532 12.6978C0.159642 13.0443 0.606191 13.5216 0.952651 13.6602C1.17593 13.7603 1.93044 13.7757 5.49513 13.7757C9.59106 13.7757 9.79124 13.768 10.1069 13.6217C10.515 13.4446 10.8152 13.1059 10.923 12.7132C10.9692 12.5285 11 10.6576 11 7.50093C11 2.89685 10.9846 2.55039 10.8537 2.26553C10.7305 1.98066 10.2301 1.49562 10.0761 1.49562C10.0376 1.49562 9.98372 1.47252 9.95292 1.43402C9.92212 1.40322 9.52177 1.38013 9.06752 1.38013H8.24372L8.18982 1.15685C8.11283 0.810393 7.72787 0.325349 7.39681 0.155969C7.13504 0.0250835 6.92717 0.00198555 5.52593 0.00198555C4.07079 -0.00571346 3.93221 0.00198555 3.62424 0.155969ZM7.08885 1.21845C7.26593 1.44172 7.22743 1.73429 6.98106 1.93446C6.85017 2.05765 6.65 2.07305 5.51823 2.07305C4.17858 2.07305 3.9861 2.03455 3.83212 1.75739C3.72433 1.54951 3.87832 1.16455 4.10159 1.06446C4.19398 1.02597 4.8638 1.00287 5.59522 1.01827C6.91177 1.03367 6.93487 1.03367 7.08885 1.21845ZM3.27778 2.68898C3.46256 2.86606 3.64734 2.98154 3.68584 2.95845C3.72433 2.93535 3.77053 2.95075 3.80132 2.99694C3.83212 3.04314 4.44035 3.07393 5.44124 3.07393C7.18894 3.07393 7.43531 3.02004 7.84336 2.58119C8.02814 2.38101 8.05894 2.37331 8.80575 2.38871C9.42938 2.39641 9.62186 2.42721 9.77584 2.5427L9.96062 2.68128L9.98372 7.28535C9.99911 9.81836 9.98372 12.0357 9.96062 12.2205C9.87593 12.7902 10.0145 12.7748 5.46433 12.7748C3.26239 12.7748 1.4069 12.7517 1.33761 12.7286C0.998846 12.5977 0.991146 12.5131 0.991146 7.57792C0.991146 3.59747 1.00654 2.88146 1.10663 2.68898C1.24522 2.41951 1.31451 2.40411 2.21531 2.38871L2.93902 2.38101L3.27778 2.68898Z" fill="#F5F0F1"/>
<circle cx="8.25032" cy="6.05" r="0.55" fill="#F5F0F1"/>
<circle cx="8.25032" cy="8.24999" r="0.55" fill="#F5F0F1"/>
<circle cx="8.25032" cy="10.45" r="0.55" fill="#F5F0F1"/>
<rect x="2.20032" y="5.5" width="4.4" height="1.1" rx="0.36" fill="#F5F0F1"/>
<rect x="2.20032" y="7.69999" width="4.4" height="1.1" rx="0.36" fill="#F5F0F1"/>
<rect x="2.20032" y="9.89999" width="4.4" height="1.1" rx="0.36" fill="#F5F0F1"/>
</svg>
