<svg width="14" height="15" viewBox="0 0 14 15" fill="none" xmlns="http://www.w3.org/2000/svg">
<path d="M7.01355 9.50001C8.11812 9.50001 9.01355 8.60458 9.01355 7.50001C9.01355 6.39544 8.11812 5.50001 7.01355 5.50001C5.90898 5.50001 5.01355 6.39544 5.01355 7.50001C5.01355 8.60458 5.90898 9.50001 7.01355 9.50001Z" stroke="#F5F0F1" stroke-width="1.3" stroke-miterlimit="10" stroke-linecap="round" stroke-linejoin="round"/>
<path d="M12.8921 4.683L12.3921 3.817C12.1161 3.3385 11.5046 3.175 11.0261 3.451L10.7631 3.603C9.76313 4.18 8.51313 3.4585 8.51313 2.304V2C8.51313 1.4475 8.06563 1 7.51313 1H6.51313C5.96063 1 5.51313 1.4475 5.51313 2V2.304C5.51313 3.4585 4.26313 4.1805 3.26313 3.603L3.00013 3.451C2.52163 3.175 1.91013 3.3385 1.63413 3.817L1.13413 4.683C0.85813 5.1615 1.02163 5.773 1.50013 6.049L1.76313 6.201C2.76313 6.7785 2.76313 8.2215 1.76313 8.799L1.50013 8.951C1.02163 9.227 0.85813 9.8385 1.13413 10.317L1.63413 11.183C1.91013 11.6615 2.52163 11.825 3.00013 11.549L3.26313 11.397C4.26313 10.8195 5.51313 11.5415 5.51313 12.696V13C5.51313 13.5525 5.96063 14 6.51313 14H7.51313C8.06563 14 8.51313 13.5525 8.51313 13V12.696C8.51313 11.5415 9.76313 10.8195 10.7631 11.397L11.0261 11.549C11.5046 11.825 12.1161 11.6615 12.3921 11.183L12.8921 10.317C13.1681 9.8385 13.0046 9.227 12.5261 8.951L12.2631 8.799C11.2631 8.2215 11.2631 6.7785 12.2631 6.201L12.5261 6.049C13.0046 5.773 13.1686 5.1615 12.8921 4.683Z" stroke="#F5F0F1" stroke-width="1.3" stroke-miterlimit="10" stroke-linecap="round" stroke-linejoin="round"/>
</svg>
