<svg width="25" height="22" viewBox="0 0 25 22" fill="none" xmlns="http://www.w3.org/2000/svg">
<path fill-rule="evenodd" clip-rule="evenodd" d="M10.9359 14.9413L10.9034 16.7994H12.9707C13.1816 16.7999 13.3836 16.879 13.5327 17.0193C13.6818 17.1597 13.7658 17.3499 13.7664 17.5483V18.2973V21.0461C13.7658 21.2446 13.6818 21.4348 13.5327 21.5751C13.3836 21.7155 13.1816 21.7945 12.9707 21.795H12.167V18.5119C12.167 18.1843 12.0347 18.2973 11.64 18.2973H9.86357H8.84616C8.52881 18.2963 8.2248 18.177 8.00059 17.9656C7.77638 17.7542 7.65022 17.4678 7.64968 17.1691V13.2557C7.64968 12.9509 7.77831 12.6585 8.00727 12.443C8.23623 12.2275 8.54677 12.1064 8.87057 12.1064H9.48102C10.7365 12.1064 10.5351 12.9186 11.0906 13.43C11.6461 13.9414 11.4975 13.9932 12.2484 13.9932H13.862C15.1989 13.9932 14.4724 15.2153 13.689 15.1769H12.2057C11.5464 15.1769 11.4894 15.2766 10.9461 14.9356L10.9359 14.9413ZM2.33879 21.9904V10.369C1.92878 10.5311 1.47109 10.5515 1.04667 10.4265C0.76657 10.3392 0.519245 10.1776 0.334484 9.961C0.149897 9.74024 0.0362255 9.47439 0.00687715 9.1948C-0.015341 8.94105 0.0164041 8.68567 0.100256 8.4436C0.184109 8.20153 0.318385 7.97763 0.495235 7.78498V7.78498C0.515687 7.76095 0.538888 7.73911 0.564419 7.71986L12.1751 0.105694C12.2492 0.0415257 12.3451 0.00419043 12.4457 0.000332049C12.5463 -0.00352633 12.6451 0.0263425 12.7245 0.084623L24.3597 7.68921C24.3781 7.70234 24.3951 7.71709 24.4105 7.73326C24.9498 8.27918 25.0841 8.88257 24.9538 9.39401C24.8904 9.64147 24.7632 9.87042 24.5835 10.0606C24.4047 10.2504 24.1779 10.3946 23.9242 10.4801C23.6996 10.5536 23.4616 10.584 23.2243 10.5696C22.987 10.5551 22.7552 10.496 22.5426 10.3958V21.9674H21.4031V9.92461C21.4031 9.73306 13.4225 4.70484 12.5414 4.05931C11.6074 4.72783 3.47829 9.70624 3.47829 9.961V22H2.33879V21.9904ZM19.0732 0.680347L22.567 0.814433V5.25651L19.0732 3.08623V0.680347ZM15.0198 15.1789C14.9297 15.1789 14.8433 15.1452 14.7795 15.0852C14.7158 15.0252 14.68 14.9438 14.68 14.859C14.68 14.7741 14.7158 14.6928 14.7795 14.6328C14.8433 14.5728 14.9297 14.5391 15.0198 14.5391H17.3863L18.5909 12.2405C18.6303 12.1643 18.7003 12.1059 18.7854 12.0782C18.8705 12.0506 18.9637 12.0559 19.0447 12.093C19.1256 12.1301 19.1876 12.1959 19.217 12.276C19.2464 12.3561 19.2408 12.4439 19.2014 12.5201L17.9133 14.972C17.889 15.0327 17.8456 15.085 17.7889 15.122C17.7322 15.1589 17.6649 15.1788 17.5959 15.1789H15.0198ZM12.0205 15.4221H18.7781C18.797 15.4221 18.8151 15.4292 18.8285 15.4418C18.8418 15.4543 18.8494 15.4714 18.8494 15.4892V16.4469C18.8494 16.4647 18.8418 16.4818 18.8285 16.4943C18.8151 16.5069 18.797 16.514 18.7781 16.514H18.4587V21.91C18.4581 21.9332 18.4481 21.9553 18.4307 21.9717C18.4132 21.9882 18.3897 21.9976 18.3651 21.9981H17.5511C17.5265 21.9976 17.503 21.9882 17.4855 21.9717C17.4681 21.9553 17.4581 21.9332 17.4575 21.91V16.5101H12.0205C12.0016 16.5101 11.9835 16.5031 11.9701 16.4905C11.9568 16.4779 11.9493 16.4609 11.9493 16.4431V15.4853C11.9493 15.4676 11.9568 15.4505 11.9701 15.4379C11.9835 15.4254 12.0016 15.4183 12.0205 15.4183V15.4221ZM6.75843 21.094C6.76429 21.0461 6.78724 21.0015 6.82354 20.9675C7.11335 20.6966 7.45981 20.4852 7.84095 20.3469C8.12903 20.2459 8.43012 20.1815 8.73628 20.1554L8.67727 19.4447H6.52035C6.41242 19.4447 6.3089 19.4043 6.23258 19.3325C6.15626 19.2607 6.11339 19.1632 6.11339 19.0616C6.11339 17.466 6.52035 16.2669 6.11339 14.451C5.99537 13.9127 7.17556 13.8342 7.17556 14.4797V18.5559H11.2574C11.4833 18.5559 11.6644 18.8394 11.6644 19.0501V19.347C11.6644 19.3694 11.655 19.3908 11.6382 19.4066C11.6214 19.4224 11.5986 19.4313 11.5749 19.4313H9.4098L9.32637 20.1324C9.65115 20.1537 9.97108 20.2182 10.2766 20.3239C10.6428 20.4466 10.9801 20.6353 11.2696 20.8794C11.3007 20.9063 11.3233 20.9407 11.3352 20.9789C11.347 21.017 11.3476 21.0575 11.3368 21.0959C11.3957 21.1299 11.4433 21.1788 11.4743 21.2371C11.5052 21.2953 11.5182 21.3605 11.5118 21.4253C11.5042 21.529 11.4552 21.626 11.3745 21.6969C11.2939 21.7678 11.1877 21.8073 11.0773 21.8073C10.967 21.8073 10.8608 21.7678 10.7801 21.6969C10.6995 21.626 10.6504 21.529 10.6429 21.4253C10.6368 21.3601 10.6501 21.2945 10.6814 21.236C10.7126 21.1774 10.7606 21.1283 10.8199 21.094C10.6077 20.9403 10.3716 20.8182 10.12 20.7319C9.82632 20.6328 9.51809 20.5772 9.20632 20.5672L9.15341 21.0116V21.0308C9.24694 21.0523 9.32974 21.1034 9.38792 21.1756C9.4461 21.2478 9.4761 21.3367 9.47288 21.4273C9.47288 21.536 9.427 21.6402 9.34534 21.7171C9.26368 21.794 9.15292 21.8372 9.03743 21.8372C8.92194 21.8372 8.81118 21.794 8.72952 21.7171C8.64785 21.6402 8.60198 21.536 8.60198 21.4273C8.59864 21.3374 8.62814 21.2493 8.68554 21.1775C8.74294 21.1056 8.82477 21.0545 8.91737 21.0327V21.0116L8.88482 20.5749C8.58645 20.5926 8.29274 20.6534 8.01391 20.7549V20.7549C7.76202 20.8474 7.52718 20.9767 7.318 21.138C7.36434 21.1725 7.4006 21.2174 7.42339 21.2687C7.44617 21.32 7.45472 21.3759 7.44823 21.4311C7.43799 21.5365 7.38845 21.6351 7.30837 21.7094C7.2283 21.7838 7.12286 21.829 7.01074 21.8372C6.89845 21.8296 6.79282 21.7842 6.71321 21.7093C6.6336 21.6343 6.58536 21.5349 6.57733 21.4292C6.57145 21.3632 6.5853 21.2971 6.61731 21.2382C6.64931 21.1793 6.6982 21.13 6.75843 21.0959V21.094ZM10.242 8.78871C10.5717 8.78833 10.8941 8.88002 11.1685 9.05217C11.4428 9.22432 11.6567 9.4692 11.7832 9.75583C11.9096 10.0425 11.9429 10.358 11.8788 10.6624C11.8148 10.9668 11.6562 11.2466 11.4232 11.4661C11.1902 11.6857 10.8933 11.8353 10.57 11.896C10.2466 11.9567 9.91144 11.9258 9.6068 11.8071C9.30217 11.6884 9.04177 11.4873 8.85856 11.2293C8.67535 10.9713 8.57756 10.6679 8.57756 10.3575C8.57756 9.94177 8.75286 9.54303 9.06495 9.24888C9.37705 8.95473 9.80041 8.78922 10.242 8.78871V8.78871Z" fill="#F5F0F1"/>
</svg>
